<?xml version="1.0" encoding="UTF-8"?>
<svg id="_Слой_1" data-name="Слой 1" xmlns="http://www.w3.org/2000/svg" viewBox="0 0 406.11 404.99">
  <defs>
    <style>
      .cls-1 {
        fill: #fff;
      }
    </style>
  </defs>
  <g>
    <rect x=".5" y="-.72" width="405.11" height="405.11" rx="85.8" ry="85.8"/>
    <path d="M319.81-.22c47.03,0,85.3,38.27,85.3,85.3v233.52c0,47.03-38.27,85.3-85.3,85.3H86.3c-47.03,0-85.3-38.27-85.3-85.3V85.07C1,38.04,39.27-.22,86.3-.22h233.52M319.81-1.22H86.3C38.64-1.22,0,37.41,0,85.07v233.52C0,366.25,38.64,404.89,86.3,404.89h233.52c47.66,0,86.3-38.64,86.3-86.3V85.07c0-47.66-38.64-86.3-86.3-86.3h0Z"/>
  </g>
  <g>
    <path class="cls-1" d="M283.02,174.75c1.56,6.62,5.24,13.86,12.01,16.19.18.79-.11.84-.55,1.27-.88.88-3.99,2.84-5.24,3.64-18.05,11.57-42.46,14.06-62.6,6.82-.69-.25-2.56-11.17-4.18-9.13-.68,13.39-2.44,26.72-8.89,38.64-4.11-1.99-8.59-4.62-13.31-4.74-1.24-.03-4.87.34-2.72,1.73,3.91,2.52,9,4.5,13.18,7.17,6.16,3.94,16.56,11.3,17.42,19.13s-10.21,27.42-14.47,35.02c-1.08,1.93-3.17,6.25-4.32,7.69-3.42,4.26-18.67-2.16-21.26-6.73,1.86-2.83,3.61-5.81,5.22-8.79,2.41-4.48,6.87-11.68,8.38-16.16.28-.84.74-1.58.16-2.47-16.68-9.62-46.2-9.88-43.56-36.22.76-7.54,8.02-23.55,13.5-28.8,1.68-1.61,3.98-2.37,5.24-4.42-6.45.41-13.73,5.67-18.96,9.49-10.03,7.33-16.94,16.2-22.03,27.57-5.45-5.06-12.98-6.2-20.1-4.69,3.44-12.58,10.52-24.55,20.09-33.43,7.37-6.85,33.45-25.38,42.54-27.43,10.54-2.36,13.98,2.16,23,4.72,4.81,1.37,10.04,1.61,14.73,3.02,4.16,1.25,8.05,3.99,12.07,5.69,19.05,8.05,37.33,6.35,54.65-4.79ZM207.18,181.15c-7.82,1.44-4.79,13.86,2.89,12.29,6.65-1.36,5.64-13.86-2.89-12.29ZM213.86,211.26c0-3.54-2.87-6.4-6.4-6.4s-6.4,2.87-6.4,6.4,2.87,6.4,6.4,6.4,6.4-2.87,6.4-6.4Z"/>
    <path class="cls-1" d="M249.61,125.68c-4.92,5.27-13.81,3.81-19.98,1.44-5.48-2.11-13.44-9.49-18.58-1.62-7.55,11.57,8.24,33.67,20.28,36.73-15.7,13.43-37.01-.06-54.09-3.62-3.96-3.27,1.64-4.22,3.97-5.52,8.03-4.49,8.72-14.01,3.2-20.99,5.51-7.4,3.34-19.01-5.3-22.63l.05-.72c7.69-9.94,14.18-20.98,18.81-32.63,5.58-.26,11.48,0,16.88,1.53,11.2,3.17,18.15,13.69,23.64,23.21-7.96,8.51-.58,25.7,11.12,24.81ZM219.33,86.5c-9.71-11.92-18.68,4.59-13.05,14.1l1.7-7.95c1.43-4.2,7.22-6.21,11.35-6.15ZM227.51,104.44c-5.39-5.43-11.47,1.73-7.47,8.25,4.77,7.77,14.13-1.53,7.47-8.25Z"/>
    <path class="cls-1" d="M195.83,266.14c.33.36-3.97,8.39-4.32,8.73-1.2,1.21-5.72,3.4-7.7,5.09-30.85,26.42-4.7,75.61,33.43,64.24,29.45-8.79,35.14-49.96,8.84-65.84l5.54-10.65c35.96,20.41,28.51,76.38-11.03,87.69-46.32,13.25-82.66-40.53-51.15-77.78,2.75-3.25,14.79-13.7,18.75-13.55,2.03.07,5.24,2.26,7.62,2.08Z"/>
    <path class="cls-1" d="M168.69,113.14c12.65-3.48,18,12.03,7.31,18.54,11.4,5.36,6.38,22.16-6.27,17.49,3.34,11.5-13.02,16.75-16.2,5.22-1.5,1.2-1.74,2.87-3.39,4.17-7.78,6.12-18.26-1.71-14.88-10.96-15.17,3.66-17.5-18.71-2.08-18.8-6.16-8.42,1.39-18.84,11.52-16.48,1.86.43,2.88,2.06,4.66,2.38.48-10.89,17.29-12.27,19.33-1.56Z"/>
    <path class="cls-1" d="M174.94,69.29c-9.73,7.75-13.32,20.46-17.32,31.76-4.48.09-7.97,2.88-10.85,6.06l-6.06.07c-3.03-.44-27.69-39.9-28.44-46.25,20.95-1.65,42.66,2.22,62.66,8.36ZM135.52,68.5c-8.69-.02-9,15.08,2.06,13.28,6.62-1.08,6.16-13.26-2.06-13.28ZM147.65,82.45c-9.33,1.92-3.14,17.48,5.55,12.33,6.29-3.73,1.69-13.82-5.55-12.33Z"/>
    <path class="cls-1" d="M301.31,165.36c1.37-.96,2.89-1.78,4.18-2.87,5.23-4.39,13.35-17.31,20.09-17.4,3.57-.04,7.41,2.49,8.65,5.87,7.01,19.13-33.66,49.53-44.84,27.61-3.66-7.18.29-11.01,1.33-17.81.65-4.28-.23-13.6,7.06-12.55s5.49,12.42,3.54,17.13Z"/>
    <path class="cls-1" d="M141.89,256.57c-2.14,1.98-5.88,1.04-8.32.03-3.64-1.51-5.37-5.34-9.7-4.21-7.98,2.08-12.38,24.16-24.9,14.78-10.32-7.74,4.16-23.91,10.69-29.51,6.81-5.84,12.06-8.4,20.33-3.08,5.98,3.85,3.51,5.07,6.07,9.07,1.43,2.24,5.62,2.37,7.07,5.98.84,2.09.43,5.38-1.24,6.93Z"/>
    <path class="cls-1" d="M208.89,303.73l-.52,3.13c6.71-.63,15.98-5.41,21.94-.27,5.64,4.86,2.24,11.58-3.83,13.95-7.41,2.89-14.86,2.25-22.4.27-1.83-.48-7.05-2.83-8.07-2.89-.89-.05-2.41,1.69-3.69,1.9-5.1.84-13.45-7.21-12.45-12.46.72-3.77,5.41-7.23,7.96-9.87,2.16,1.42,3.83,2.98,6.27,4.07,1.26.56,5.63,2.16,6.71,2.16h8.09Z"/>
    <path class="cls-1" d="M173.8,107.28c-2.3,1.32-3.83-2.45-5.67-3.77-1.41-1.01-3.52-1.79-5.15-2.42-.66-.92,6.82-16.09,8.05-18.25,2.74-4.8,7.92-13.21,14.11-13.08,2.56.05,8.64,2.74,7.88,5.79l-19.21,31.74Z"/>
    <path class="cls-1" d="M220.38,132.98c-.14,7.11,5.92,13.23,12.17,15.76,2.27.92,8.73,1.84,9.7,3.35,1.46,2.27.29,5.76-2.41,6.36-11.93,2.68-32.35-17.89-24.93-29.1,3.67-5.54,10.44.8,14.88,2.3,3.84,1.3,8.07,1.74,12.11,1.19,3.28-.45,11.7-5.82,11.4,1.43-.24,5.77-10.15,6.85-14.41,6.56-7.44-.51-12.13-4.99-18.51-7.85Z"/>
    <path class="cls-1" d="M241.77,268.22l-8.86-4.2c5-13.18-6.56-22.65-15.62-30l2.57-4.44c6.2,3.68,24.4,6.98,27.77,13.21,4.06,7.52-3.71,18.22-5.86,25.43Z"/>
    <circle class="cls-1" cx="252.63" cy="107.87" r="12.92"/>
    <circle class="cls-1" cx="99.19" cy="55.09" r="11.14"/>
  </g>
</svg>