<?xml version="1.0" encoding="UTF-8"?>
<svg id="_Слой_1" data-name="Слой 1" xmlns="http://www.w3.org/2000/svg" viewBox="0 0 406.11 406.11">
  <defs>
    <style>
      .cls-1 {
        fill: #fff;
      }
    </style>
  </defs>
  <g>
    <path d="M86.3.5h233.51c47.35,0,85.8,38.45,85.8,85.8v233.52c0,47.35-38.45,85.8-85.8,85.8H86.3C38.95,405.61.5,367.17.5,319.81V86.3C.5,38.95,38.95.5,86.3.5Z"/>
    <path d="M319.81,1c47.03,0,85.3,38.27,85.3,85.3v233.52c0,47.03-38.27,85.3-85.3,85.3H86.3c-47.03,0-85.3-38.27-85.3-85.3V86.3C1,39.27,39.27,1,86.3,1h233.52M319.81,0H86.3C38.64,0,0,38.64,0,86.3v233.52C0,367.48,38.64,406.11,86.3,406.11h233.52c47.66,0,86.3-38.64,86.3-86.3V86.3C406.11,38.64,367.48,0,319.81,0h0Z"/>
  </g>
  <g>
    <path class="cls-1" d="M96.09,304.7c-4.9.25-10.08,1.88-14.92,2.12-16.94.84-19.25-21.14-2.34-24.5,15.24-3.04,31.59-3.7,46.88-6.89,13.26-10.73,24.58-25.39,40.49-32.58,9.52-4.3,24.36-6.25,34.89-7.4,6.47-.7,18.34-1.93,23.76,2,14.23,17.09,26.24,36.06,40.05,53.55,2.25,1.3,4.81,1.86,7.28,2.57,6.73,1.94,22.87,6.68,29.15,7.01,5.36.28,8.98-2.71,15.38-.22,9.64,3.75,9.3,18.06-.84,21.13-7.89,2.39-9.52-1.22-15.78-3.28-9.41-3.11-20.52-4.56-30.29-7.48-4.38-1.31-13.02-3.9-16.56-6.43-2.49-1.78-8.64-10.74-10.87-13.76-4.43-5.98-9.17-14.51-13.86-19.8-.42-.47-.86-1.28-1.61-1.28-2.5.6-.82,3.44-.15,5.08.96,2.35,5.52,9.39,5.29,11.12-.06.48-.25.76-.6,1.08-.94.83-7.85,2.32-9.59,2.73-12.58,2.94-25.48,4.53-38.15,7-7.29,5.65-14.76,16.46-22.56,20.95-6.88,3.96-25.04,4.24-33.58,5.01-4.47.4-9.56,1.51-13.96,1.63-18.02.52-18.7-22.15-1.22-24.62,10.57-1.49,22.41-.87,32.83-2.47,4.26-.65,7.08-3.52,10.43-5.99,2.41-1.78,8.93-6.27,9.61-8.86,1.25-4.76-1.31-5.8-5.19-3.55-4.8,2.79-9.78,7.96-14.59,10.45-5.82,3.01-24.63,3.23-32.27,4.26-7.77,1.05-14.14,3.56-17.11,11.42Z"/>
    <path class="cls-1" d="M344.92,237.03c-7.04-5.52-14.63-10.25-22.3-14.85-8.96-5.38-31.13-19.03-40.7-19.65-13.42-.87-22.56,13.72-20.65,25.98,1.18,7.58,19.91,24.68,26.17,30.07,10.37,8.94,21.69,16.71,32.84,24.62-5.49,6.49-12.86,10.31-21.54,9.64-20.58-1.59-43.82-28.42-56.03-43.72-9.09-11.4-14.35-17.14-8.94-32.32,11.29-31.68,46.01-50.05,78.04-36.38,21.61,9.23,36.73,32.81,33.1,56.59Z"/>
    <path class="cls-1" d="M298.94,243.19c-3.34-.07-9.6,5.05-11.84,1.38-3.74-6.15,5.7-6.11,9.33-7.99.58-3.44-5.8-12.36.65-13.11,4.9-.57,3.98,7.4,5.95,10.53.92.65,7.71-2.73,10.06-2.29,1.86.35,3.09,4.97,1.02,6.34-1.22.81-8.81,2.52-8.99,3.33.39,2.37,3.45,8.76,2.06,10.68-1.02,1.41-4.59,2.1-5.73.33s-1.85-7-2.51-9.2Z"/>
    <path class="cls-1" d="M328.92,249.76c.62.61,7.63-2.91,8.84-2.85,1.77.09,2.63,3.6,2.16,5.03-.5,1.65-6.82,3.28-8.51,4.02-.41,3.2,3.83,8.61.77,10.82-5.52,3.97-5.32-5.16-6.96-8.4-.37-.28-7.14,3.04-8.81,2.88s-2.72-3.98-2.06-5.34,7.11-2.61,8.66-3.68c.37-3.05-3.9-8.58-.27-10.51,5.21-2.77,5.39,4.67,6.19,8.03Z"/>
  </g>
</svg>