<?xml version="1.0" encoding="UTF-8"?>
<svg id="_Слой_1" data-name="Слой 1" xmlns="http://www.w3.org/2000/svg" viewBox="0 0 406.8 407.62">
  <defs>
    <style>
      .cls-1 {
        fill: #fff;
      }
    </style>
  </defs>
  <g>
    <path d="M83.19.52h233.52c47.35,0,85.8,38.45,85.8,85.8v233.51c0,47.35-38.45,85.8-85.8,85.8H83.19c-47.35,0-85.8-38.45-85.8-85.8V86.32C-2.61,38.97,35.84.52,83.19.52Z"/>
    <path d="M316.71,1.02c47.03,0,85.3,38.27,85.3,85.3v233.52c0,47.03-38.27,85.3-85.3,85.3H83.19c-47.03,0-85.3-38.27-85.3-85.3V86.32C-2.11,39.29,36.16,1.02,83.19,1.02h233.52M316.71.02H83.19C35.53.02-3.11,38.66-3.11,86.32v233.52c0,47.66,38.64,86.3,86.3,86.3h233.52c47.66,0,86.3-38.64,86.3-86.3V86.32C403.01,38.66,364.37.02,316.71.02h0Z"/>
  </g>
  <g>
    <path class="cls-1" d="M69.15,208.47c11.74.45,25.87,9.8,36.47,1.15-10.98-5.88-22.54-8.5-31.16-18.23-9.25-10.43-7.91-16.76-10.59-29.12-1.84-8.48-6.87-10.11-13.52-13.72-.54-.29-.78.02-.59-1.03,6.16-.3,13.62,1.81,18.22,6.01,5.08,4.64,7.43,12.02,11.8,17.29,6.24,7.54,16.02,12.15,25.84,12.25-1.54,3.93-7.29,3.11-10.41,5.07-1.03,1.49,4.96,3.82,6.05,4.14,7.23,2.1,16.98.23,15.33-9.33-1.13-6.54-14.23-11.47-19.43-15.2-19.53-14.02-13.92-40.83-44-45.57-1.75-.28-3.68.19-5.47-.52-1.17-.62,2.59-2.56,3.13-2.85,8.84-4.61,20.12-5.33,29.52-2.11,23.94,8.19,22.18,40.95,54,37.16,1.31-.16,8.04-1.7,7.08-3.58-6.97-4.37-14.65-6.52-20.1-13.16-6.6-8.04-5.53-18.76-10.09-27.77-3.28-6.49-8.27-10.27-13.94-14.45,5.66.28,12.58,2.58,17.55,5.3,13.97,7.64,17.56,27.78,34.17,34.17,19.71,7.58,28.6-12.02,9.83-23.22-6.48-3.87-14.42-6.59-20.21-11.65-7.26-6.34-6.54-14.61-10.01-22.78-2.02-4.77-4.64-7.78-8.24-11.37,6.66.8,14.02,4.9,18.45,9.94,7.19,8.16,9.56,17.62,20.31,23.09,4.18,2.13,18.18,6.92,19.38-.51,1.3-7.98-9.17-12.6-14.52-16.36l.48-.93c9.78,1.5,21.08,3.98,27.7,12,8.79,10.64,3.49,19.99,4.36,32.11.77,10.69,6.66,20.09,14.32,27.22-.65.81-1.75.8-2.67,1.01-16.2,3.78-33.95,5.06-49.97,9.13-6.61,1.68-8.17,3.35-12.69,8.09-7.87,8.25-18.15,19.15-25.14,27.95-9.87,12.43,1.05,24.98,14.54,26.53,1.58.18,9.02-.71,6.47,2.33-5.26,6.27-21.92,7.97-29.56,7.36-14.99-1.19-22.96-9.22-33.48-18.24-3.03-2.6-6.44-4.84-9.24-7.61Z"/>
    <path class="cls-1" d="M260.37,206.55l23.59-4.21c8.89-10.4,27.46-2.15,22.74,11.65-3.17,9.25-14.53,11.63-22.13,6.06-9.85,1.03-21.37,5.34-31.03,5.9-3.29.19-5.78-.48-7.76-3.21-4.76-6.57-7.71-17.16-12.34-23.67-.39-.55-.75-1.25-1.54-1.25-.57,0-7.5,6.64-8.55,7.63-5.29,4.99-10.26,10.38-15.45,15.49-1.13,1.11-5.26,3.3-3.27,5.08l27.65,15.29c6.9,4.99,2.2,10.75-.84,16.56-4.59,8.78-10.22,17.02-14.95,25.73-.2.59,0,.86.39,1.28,1.07,1.13,5.87,2.53,7.62,3.92,4.46,3.56,2.91,11.36-3.24,11.56-2.31.07-18.72-5.14-21.31-6.4-4.58-2.21-4.93-5.29-3-9.64,3.56-8.03,9.43-16.11,13.26-24.13.9-2.93-.28-3.93-2.54-5.35-10.34-6.49-37.03-13.87-42.51-23.98-9.75-18.02,17.43-35.74,28.18-45.72.6-.55,1.49-1.16,1.38-2.08-4.66.37-9.32,1.23-13.93,1.99-7.69,1.26-16.42,1.35-22.09,7-5.28,5.26-9.81,11.48-14.99,16.87-4.78,4.98-9.57,10.73-17.01,5.46-3.63-2.58-4.23-9.17-1.69-12.62,7.07-9.61,18.01-18.55,25.15-28.4,2.96-3.67,6.94-4.74,11.3-5.78,17.95-4.29,37.11-6.27,55.17-10.39,2.24-.12,4.36.07,6.41,1.01,3.73,1.72,12.23,8.48,15.95,11.29,2.88,2.17,5.91,4.21,8.36,6.88l12.99,30.17Z"/>
    <path class="cls-1" d="M320.32,127.2l-55.22-15.18c-11.43-1.17-11.28,11.31-9.68,19.37,2.14,10.75,13.78,16.34,22.57,21.29,10.98,6.18,22.59,11.24,33.8,16.98-.88,6.71-12.48,18.63-18.94,19.43-5.31.65-12.77-3.56-17.63-5.94-19.85-9.69-37.85-23.14-56.22-35.2-5.48-6.46-4.51-24.75-2.82-32.76,1.72-8.19,5.51-17.59,12.47-22.61,4.12,7.59,10.93,11.9,19.81,11.03,11.76-1.16,19.65-14.21,11.19-23.95-.29-.34-.46-.25-.28-.92,11.85-1.22,24.37.12,34.94,5.92,15,8.24,25.33,25.52,26,42.55Z"/>
    <path class="cls-1" d="M182.5,336.36c.65-.57,1.11-.9.22-1.6-1-.78-4.73-2.03-6.3-2.94-22.67-13.07-32.81-39.49-23.58-64.37,3.27-8.82,9.57-16.85,16.65-22.91l13.24,7.09c-15.25,10.46-23.13,26.4-18.24,45.02,6.48,24.68,36.47,35.91,58.09,22.53,17.74-10.98,22.37-30.81,14.85-49.76-.66-1.66-2.78-4.47-2.34-6.02,2.48-2.89,3.79-7.95,5.88-10.78.28-.38.45-.92,1.08-.76,3.28,4.68,6.63,9.44,8.77,14.78,10.99,27.5-2.99,58.52-30.58,68.67-2.71,1-10.25,3.35-12.81,3.35h-62.33c-.87,0-.87-2.31,0-2.31h37.4Z"/>
    <path class="cls-1" d="M320.33,135.06c-.69,4.8-1.13,9.63-1.99,14.4-.27,1.52-2.5,12.82-3.33,12.82-8.34-5.09-17.6-8.69-25.94-13.76-4.23-2.58-4.94-2.79-6.02-7.83s-1.38-10.27-1.98-15.33l39.25,9.7Z"/>
    <path class="cls-1" d="M252.45,51.03c-6.35,7.74-8.96,14.81-3.6,24.14,1.93,3.37,8.21,8.46,8.93,10.92,1.57,5.32-4.1,11.59-9.38,12.36-14.97,2.2-19.58-15.55-18-27.23,1.32-9.74,11.81-20.64,22.04-20.2Z"/>
    <path class="cls-1" d="M316.43,56.58c2.72-.7,6.64,4.38,7.67,6.59,5.25,11.23,1.72,27.75-8.17,35.3l-14.53-15.34c8.36-5.29,15.96-12.34,15.23-23.1-.07-.98-1.36-3.15-.2-3.45Z"/>
  </g>
</svg>