<?xml version="1.0" encoding="UTF-8"?>
<svg id="_Слой_1" data-name="Слой 1" xmlns="http://www.w3.org/2000/svg" viewBox="0 0 406.11 406.11">
  <defs>
    <style>
      .cls-1 {
        fill: #fff;
      }
    </style>
  </defs>
  <g>
    <path d="M86.3.5h233.52c47.35,0,85.8,38.45,85.8,85.8v233.52c0,47.35-38.45,85.8-85.8,85.8H86.3c-47.35,0-85.8-38.45-85.8-85.8V86.3C.5,38.94,38.95.5,86.3.5Z"/>
    <path d="M319.81,1c47.03,0,85.3,38.27,85.3,85.3v233.52c0,47.03-38.27,85.3-85.3,85.3H86.3c-47.03,0-85.3-38.27-85.3-85.3V86.3C1,39.27,39.27,1,86.3,1h233.52M319.81,0H86.3C38.64,0,0,38.64,0,86.3v233.52C0,367.48,38.64,406.11,86.3,406.11h233.52c47.66,0,86.3-38.64,86.3-86.3V86.3C406.11,38.64,367.48,0,319.81,0h0Z"/>
  </g>
  <g>
    <path class="cls-1" d="M306.56,201.23c1.1.23.75-.14,1.05-.6,1.87-2.91,2.55-6.13,5.05-8.97,2.43-2.77,13-9.52,16.35-7.97,1.12.52,2.52,3.86,3.52,1.65.42-.93-3.86-9.02-4.46-11-1.61-5.34-2.6-12.36,2.84-15.9,6.17-4.02,9.39,1.01,10.87,6.4,1.31,4.74,2.81,14.61-5.44,11.05-2.34-1.01-2.81-3.36-4.98-4.14-.07,4.03,4.05,8.7,7.82,9.72.9.24,2.26-.13,2.85.2.28.16,2.31,3.93,4.14,4.98,4.9,2.84,13.09.72,15.13-4.85-.71-.99-.65-.46-1.23-.31-3.88.96-9.83,3.41-12.8-1.09-5.16-7.8,9.09-10.56,14.04-10.76-3.92-3.78-9.3-1.17-13.81-1.13-2.23.02-2.91-1.94-2.58-3.99.57-3.54,10.18-5.17,13.11-5.64-4.05-3.05-8.97-2.2-13.35-.35-4.02-4.09-2.58-6.68,2.57-8.1,27.5-7.57,35.07,45.18,7.27,47.98-7.33.74-12.03-1.87-17.3-6.55-1.17.73-.42,1.82.05,2.75,3.03,6.07,10.05,9.65,16.56,10.35-1.97,5.89-4.76,11.9-8.91,16.59-8.27,9.37-25.86,17.4-37.92,11.74-3.05-1.43-2.59-1.35-6.08-2.34-6.31-1.78-14.05-5.51-15.31-12.77-1.02-5.89,2.3-6.26,5.14-10.55,7.88-11.88,5.6-30.43-5.96-39.18-.8-.61-5.58-3.65-4.53-1.1.59,1.42,2.17,3.05,2.97,4.53,15.06,27.84-2.49,45.31-31.57,33.91-1.42-.56-6.26-3.53-3.14.8,6.17,8.55,17.71,10.83,27.62,9.32,5.84,13.86-3.11,29.65-15.03,36.98-11.87,7.29-26.52,9.27-40.12,6.73-8.74-20.8-34.64-32.86-56.48-31.26-.91.07-7.1.6-5.85,2.33,11.4,2.1,22.49,3.26,33.08,8.34,25.35,12.17,30.07,32.67,8.58,52.27-1.71,1.56-12.42,9.07-12.66,9.84-.08.26-.14,1.14.29,1.19,6.2.97,16.36,7.73,14.48,14.95-.41,1.58-1.45,2.58-2.94,3.14-8.4,3.13-32.71-3.35-40.04-8.85-4.93-3.7-3.22-7.67-.04-12.04.7-.97,2.64-2.31,2.9-3.18.55-1.81-.61-5.68-.32-8.28.72-6.48,4.55-10.54,10.08-13.32,1.52-.76,3.96-.77,4.38-2.63-.25-1.21-6.74-.62-8.18-.71-10.87-.72-21.19-2.64-30.15-9.16-17.03-12.4-15.08-32.93-4.97-49.22,4.34,1.22,9.89,3.57,14.29,2-8.87-4.63-18.51-9.74-21.06-20.36,11.07-.08,20.27-5.77,27.6-13.57.36,1.37,1.08,2.84,1.8,4.06,13.13,22.41,55.59,31.97,78.69,22.84,10.05-3.97,16.02-16.4,10.31-26.2l-2.11,10.06c-3.14,8.31-9.64,10.81-17.91,12.04-17.92,2.68-52.32-3.23-61.33-21.25-4.6-9.2.62-11.66,3.66-19.8-.6-.5-7.34,4.97-8.58,5.69-2.26,1.31-5.33,2.12-7.3,3.46-2.19,1.49-4.42,4.71-6.58,6.53-8.07,6.79-18.57,9.4-28.96,8.12-1.55-6.04-6.81-12.59-12.27-15.58-1.3-.71-4.94-2.9-5.35-.74,5.45,4.84,9.82,10.39,10.07,18.03s-5.35,14.48-6.08,22.22c13.76-3.22,22.39,6.99,14.27,19.19-1.42-2.29-1.94-6.2-5.38-6.08.1,4.41,3.38,7.86,3.74,12.4.4,5.1-1.98,9.57-7.69,8.63-2.22-.37-3.4-2.68-5.4-3.25-.71,2.98,3.25,5.28-.15,7.11-5.26,2.84-11.58-.66-15.76-3.84l1.87,4.67c-9.16,2.26-14.59-6.82-16.71-14.4-1.46-5.23-2.08-10.79-1.14-16.16-14.4-14.83-21.43-39.87-8.34-57.64,3.41-4.63,2.79-4.47,4.91-9.6,4.72-11.44,18.48-22.1,29.93-26.22,2.82-1.02,8.21-1.78,10.25-2.86,1.36-.72,3.93-3.68,5.48-4.82,9.29-6.86,19.32-10.14,30.96-8.1,8.42,1.47,15.17,6.45,22.35,10.64,1.3-1.64-7.15-8.24-8.42-9.35,4.07-1.29,8.25-2.62,12.61-2.32,3.2,18.32,18.13,27.42,33.3,35.25,13.88,7.17,30.5,14.61,45.22,19.83,6.79,2.41,9.45,3.75,16.52.37,11.15-5.32,17.06-15.8,18.71-27.63.09-.61-.29-.87.64-.66,1.51.34,5.5,2.07,7.02,2.82,10.47,5.17,17.85,15.12,18.07,27.09h-7.96c-.24,1.4.37.74,1.1.99,7.11,2.4,14.15,8.06,17.62,14.7-5.27,1.91-9.3,4.05-11.63,9.42-.24.56-1.47,3.48-1.47,3.68v6.79ZM240.89,240.19c-4.1.11-6.37,6.52-2.21,7.64s7.06-7.78,2.21-7.64Z"/>
    <path class="cls-1" d="M278.02,95.93c-13.83-2.52-27.39-6.35-41.16-9.14-5.08-1.03-18.78-4.36-23.08-3.39-4.59,1.02-6.1,9.72-5.94,13.7.48,12.55,9.51,17.65,19.48,22.64,15.37,7.7,32.22,13.83,48.35,19.75-1.51,7.07-7.63,14.72-14.01,18-2.39,1.23-3.7,2.16-6.58,1.41-20.11-10.02-45.71-17.04-63.97-30.09-26.11-18.66-17.74-56.32,10.32-68.05,31.39-13.12,67.46,1.89,76.6,35.18Z"/>
    <path class="cls-1" d="M164.3,321.97c1.99.76,4.03,1.5,6.08,2.1,2.61.77,9.48,1.9,11.2,2.84.9.49,2.62,3.13,3.77,4.19,14.63,13.35,37.21,6.5,44.68-11.02,6.35-14.89,1.76-31.82-12.35-40.04l3.71-10.01c18.05,5.2,28.53,22.96,26.14,41.36-2.13,16.48-13.4,30.96-29.18,36.33-21.98,7.48-47.02-3.2-54.05-25.75Z"/>
    <path class="cls-1" d="M233.42,95.56l45.07,9.02c.56.43,1.79,12.28,1.88,14.03.11,2.11.32,12.16-.93,13.16-6.43-1.47-12.75-3.7-18.98-5.88-5.32-1.86-22.12-7.43-25.73-10.31-4.05-3.23-6.23-16.73-1.31-20.03Z"/>
    <path class="cls-1" d="M270.52,254.11c.72,2.35,2.23,4.27,2.95,6.65,4.43,14.68-4.73,26.72-16.97,33.59-2.43-10.2-9.16-18.9-16.85-25.73,4.66-.5,8.99-2.54,13.27-4.28l17.61-10.23Z"/>
    <path class="cls-1" d="M206.88,316.82c2.76-5.4-6.11-12.57-6.11-16.14,0-2.94,5.68-5.69,7.3-4.49,2.09,1.54.57,5.35,1.22,7.22.23.67,1.29.86,1.73,1.54,3.09,4.75,1.49,10.49-4.15,11.87Z"/>
  </g>
</svg>