<?xml version="1.0" encoding="UTF-8"?>
<svg id="_Слой_1" data-name="Слой 1" xmlns="http://www.w3.org/2000/svg" viewBox="0 0 406.11 406.11">
  <defs>
    <style>
      .cls-1 {
        fill: #fff;
      }
    </style>
  </defs>
  <g>
    <path d="M86.3.5h233.51c47.35,0,85.8,38.45,85.8,85.8v233.52c0,47.35-38.45,85.8-85.8,85.8H86.3C38.95,405.61.5,367.17.5,319.81V86.3C.5,38.95,38.95.5,86.3.5Z"/>
    <path d="M319.81,1c47.03,0,85.3,38.27,85.3,85.3v233.52c0,47.03-38.27,85.3-85.3,85.3H86.3c-47.03,0-85.3-38.27-85.3-85.3V86.3C1,39.27,39.27,1,86.3,1h233.52M319.81,0H86.3C38.64,0,0,38.64,0,86.3v233.52c0,47.66,38.64,86.3,86.3,86.3h233.52c47.66,0,86.3-38.64,86.3-86.3V86.3C406.11,38.64,367.48,0,319.81,0h0Z"/>
  </g>
  <g>
    <path class="cls-1" d="M256.87,249.83c-1.07-.98-2.79-3.4-3.32-4.78-3.42-8.87-4.73-20.18-7.68-29.45-.26-.81-.88-2.85-1.65-3.11-2.6-.87-39.66,16.56-45.31,18.08-.49.38-.28,1.28-.24,1.8.78,11.67,3.33,23.45,3.57,35.15.22,10.76-3.73,14.08-12.79,18.46-12.66,6.12-28.39,13.65-41.36,18.68-6.09,2.36-12.32,3.08-16.96-2.36-5.59-6.56-3.87-14.14,3.53-18.18,12.39-5.88,25.91-10.31,38.2-16.31,1.62-.79,3.52-1.44,4.32-3.22l-4.38-33.59c-.82-2.17-3.26-2.38-4.92-.96-7.09,6.16-13.81,12.84-20.96,18.94-9.26,7.91-13.38,13.08-26.38,9.38-10.38-2.95-21.1-7.02-31.39-10.48s-23.69-4.54-21.99-19.01c1.35-11.44,10.76-9.32,18.83-7.06,12.81,3.59,25.58,8.82,38.39,12.56,2.82,1,4.82-1.56,6.54-3.37,12.4-12.99,22.18-31.27,39.2-38.22,14.23-5.81,29.14-10.04,43.36-15.9.34-.34-.36-.76-.59-.99-2.03-2.05-6.07-4.94-8.51-6.9-11.06-8.87-24.92-17.55-35.13-26.88-1.87-1.7-3.18-3.1-3.82-5.66-1.85-7.41.12-14.02,8.56-14.87,10.12-1.01,14.32,5.81,21.34,11.44,15.95,12.8,32.85,24.54,48.73,37.39,6.68,5.4,17.87,19.92,20.56,28.03,3.61,10.92,5.47,23.17,9.3,34.15l.61.97c.93.57,1.93,1,2.94,1.41,5.22,2.14,23.4,8.65,28.25,9.31,1.23.17,2.66-.32,4.15-.23,9.83.61,15.34,12.16,10.16,20.41-3.8,6.06-11.34,6.22-17.45,3.87-2.5-.96-3.56-2.96-5.53-3.95-9.79-4.89-24.66-7.31-35.26-11.74-1.6-.67-3.62-1.65-4.89-2.81Z"/>
    <path class="cls-1" d="M292.99,101.56c29.37-.96,58.65,20.89,54.88,52.51-.16,1.34-.77,5.22-2.43,5.06-6.22-3.05-12.21-6.58-18.38-9.7-10.73-5.42-21.6-10.86-32.63-15.56-3.28-.56-7.8.86-9.51,3.85-5.27,9.21-7.68,22.86-.34,31.67,9.11,10.93,23.53,20.43,33.6,30.79,1.62,1.67,1.82,2.41.2,4.18-7.89,8.6-18.74,16.6-28.87,5.93l-28.83-35.16c-6.66-8.13-13.29-11.79-12.65-23.33,1.45-25.84,17.36-49.33,44.97-50.23Z"/>
    <path class="cls-1" d="M309.95,151.73c1.48,1.26,4.32,8.99,5.25,9.58,1.11.7,9.24-3.7,11.51-3.18,1.17.27,3.89,5.74,3.32,6.91-.63,1.28-8.67,3.53-10.48,3.96-.4.44,4.28,8.92,3.96,11.23-.22,1.65-5.93,3.37-7.25,2.93s-3.39-8.92-4.23-10.6c-.71-.52-8.6,3.81-10.43,3.56-1.44-.2-3.55-5.11-3.21-6.35.52-1.9,7.79-3.9,9.71-4.73-.78-2.03-5.31-8.74-5.15-10.45s5.6-4.05,7.01-2.86Z"/>
    <path class="cls-1" d="M87.67,103.42c-.68-.72.77-.95,1.1-1.05,7.66-2.32,27.2-.84,36.21-.94,15.87-.19,33.21-1.27,49.01-.39,1.43.08,4,.31,5.34.59.99.21,2.16.78,2.72,1.65.14.77-1.24,1.45-1.86,1.64-2.1.64-7.32.81-9.76.91-22.02.88-46.01.08-67.97-1.2-2.16-.13-13.98-.31-14.81-1.2Z"/>
    <path class="cls-1" d="M68.31,180.84c-1.58-2.41,6.11-1.92,6.91-1.97,15.97-1.05,32.93-.07,48.97.42,3.62.11,7.51-.28,11.07-.01,1,.08,6.83.83,6.52,2.16-.25,1.06-6.48,1.7-7.71,1.78-15.24.98-32.57-.34-47.8-1.18-2.3-.13-17.47-.44-17.97-1.2Z"/>
    <path class="cls-1" d="M146.03,141.44c.27.26.43.85.47,1.25-.29,1.07-7.83,1.75-9.24,1.83-11.92.65-24.14-.23-35.97-.8-7.69-.37-15.57-.27-23.11-1.78-.39-.94,0-.79.56-1.03.92-.38,4.7-.7,5.94-.76,16.08-.82,36.45-.73,52.57,0,1.82.08,4.52.23,6.27.44.52.06,2.18.55,2.5.85Z"/>
    <path class="cls-1" d="M167.85,162.68c.99,1.29-4,1.92-4.55,1.96-9.27.79-19.53-.14-28.81-.41-2.04-.06-25.54-.24-25.5-1.77.02-.68.4-.88.99-.98,9.32-.53,18.71-.51,28.06-.42,1.13.01,2.09.41,3.12.43,3.64.06,25.35-.56,26.68,1.17Z"/>
    <path class="cls-1" d="M104.57,198.34c7.23-.25,14.44-.15,21.61.27,1.61.1,9.81-.42,9.59,2.18-.04.44-1.29,1.18-1.78,1.29-4.6,1.02-9.94.2-14.52.07-6.97-.21-14.43-.21-21.34-.78-1.16-.1-5.07-.42-5.55-1.17l.2-1.01c3.86-.66,7.85-.72,11.78-.86Z"/>
    <path class="cls-1" d="M153.63,122.78c.15,1.13-1.36,1.42-2.21,1.54-5.14.72-9.96.12-14.96.02-6.78-.14-14.69.2-21.34-.78-.95-.14-3.73-.51-3.76-1.77,1.22-.17,2.5-.53,3.74-.61,8.29-.53,17.03.07,25.28.43,4.47.19,8.89-.37,13.25,1.17Z"/>
  </g>
</svg>