<?xml version="1.0" encoding="UTF-8"?>
<svg id="_Слой_1" data-name="Слой 1" xmlns="http://www.w3.org/2000/svg" viewBox="0 0 406.11 406.18">
  <defs>
    <style>
      .cls-1 {
        fill: #fff;
      }
    </style>
  </defs>
  <g>
    <path d="M86.3.55h233.52c47.35,0,85.8,38.45,85.8,85.8v233.51c0,47.35-38.45,85.8-85.8,85.8H86.3c-47.35,0-85.8-38.45-85.8-85.8V86.34C.5,38.99,38.95.55,86.3.55Z"/>
    <path d="M319.81,1.05c47.03,0,85.3,38.27,85.3,85.3v233.52c0,47.03-38.27,85.3-85.3,85.3H86.3c-47.03,0-85.3-38.27-85.3-85.3V86.34C1,39.31,39.27,1.05,86.3,1.05h233.52M319.81.05H86.3C38.64.05,0,38.68,0,86.34v233.52C0,367.52,38.64,406.16,86.3,406.16h233.52c47.66,0,86.3-38.64,86.3-86.3V86.34C406.11,38.68,367.48.05,319.81.05h0Z"/>
  </g>
  <g>
    <path class="cls-1" d="M215.79,120.04c.3,3.35,3.55,6.7-1.97,6.67-18.4-.1-32.04-7.86-33.42-27.51-3.85-55.13,84.2-70.76,99.56-11.76,1.85,7.1.43,10.31.76,16.68.23,4.47,3.08,7.17,2.22,13.42-.73,5.38-6.07,6.44-6.94,9.2-.58,1.86,1.79,8.8-1.28,8.94l-30.4-1.85c-1.93-.57-.87-3.78-1.56-5.6-2.77-7.34-11.89-6.21-18.24-6.85-2.88-.29-5.89-.8-8.73-1.34ZM247.92,91.04c-10.22,1.62-16.23,17.69-6.75,24.01,6.56,4.38,15.11.82,16.96-6.63,2-8.02.63-19.09-10.21-17.38ZM272.56,95.51c-4.76.89-6.46,8.54-4,12.29l6.12,8.56c5.71-3.1,4.85-11.96,3.04-17.27-1.04-3.06-1.62-4.24-5.17-3.57ZM267.98,112.99c-2.7,1.23-4.42,4.42-5.28,7.16-.68,2.17-1.75,4.95,1.34,5.63.64.14,7.53.62,7.9.49,2.06-.69-.18-8.82-1.12-10.41-.29-.49-2.54-2.84-2.84-2.87Z"/>
    <path class="cls-1" d="M187.56,249.96l-2.49,10.72c-19.47,9.96-23.49,35.92-7.77,51.27,17,16.6,46.44,7.88,51.78-15.32,3.84-16.68-4.5-30.32-19.1-37.76.68-3.24,1.1-6.47.87-9.81,15.59,4.6,27.87,17.99,29.96,34.32,4.38,34.33-32.07,59.15-62.07,41.46-30.31-17.87-24.96-64.93,8.81-74.88Z"/>
    <path class="cls-1" d="M218.05,166.17c2.56.68,5.14,1.27,7.83.92,2.06-.26,4.99-3.17,4.68,1.5-.47,7.13-10.19,4.27-14.31,2.52l-1.34,4.46c3.06,1.05,6.08,2.79,9.43,2.06,1.31-.28,2.95-1.99,3.78-.24,1.07,2.26-.77,5.19-3.03,5.92-4.51,1.47-8.22-1.27-11.97-3.24.08,1.01-1.36,2.29-1.12,3.14.19.66,2.9,3.58,3.57,4.03,2.76,1.88,4.2.98,7.11.48,2.21.72-.19,6.67-4.87,6.25-4.08-.37-4.64-4.55-7.84-5.84-.24,2.92.09,7.76,3.25,9.07,1.95.81,6.03-.36,2.81,3.48-3.55,4.23-8.11.8-9.66-3.36-.88-2.36-.64-7.26-4.02-6.31-4.04,1.12-7.84,4.25-12.76,4.73-10.03.97-22.47-5.92-26.28-15.37-.93-2.31-2.3-6.02.77-7.04,1.83-.17,2.95,3.45,4.05,4.91,6.68,8.88,17.84,15.87,28.85,9.89.12-1.18.02-.72-.67-.88-9.08-2.06-16.47-4.98-22.64-12.31-2.13-2.54-8.66-12.29-2.52-13.19,4.72,7.11,10.27,14.04,18.23,17.64,5.3,2.4,15.63,6.5,17.01-2-9.82.19-20.63-5.91-26.42-13.67-1.09-1.46-4.09-5.9-3.96-7.49.15-1.8,1.63-4.13,3.62-2.95,1.07.64,4.48,6.38,5.92,7.99,5.26,5.87,14.11,11.46,22.18,11.44.82-.41,2.8-4.63,2.25-5.17-7.49-.74-16.15-5.78-20.84-11.64-1.27-1.59-2.17-2.64-1.22-4.82,2.1-4.83,5.18.85,6.82,2.36,3.02,2.77,8.92,6.83,12.69,8.36.91.37,3.93,1.63,4.55.82,1.25-1.62-.03-12.23,4.41-9.82,4.74,2.57,2.46,9.35,1.66,13.38Z"/>
    <path class="cls-1" d="M171.09,217.61c10,5.39,20.02,11.79,30.37,16.43,2.38,1.07,7.25,1.47,7.96,4.58.77,3.39-2.02,9.15-5.61,9.88-3.78.77-9.13-.06-9.49-4.65-.1-1.24,1.17-2.37-.79-3.24-8.74-3.84-16.8-9.34-25.7-12.82-4.8-1.88-6.39-1.37-10.76-2.23-2.66-.52-7.24-3.94-7.58-6.79-.64-5.36,6.2-6.99,6.25-8.91.03-1.19-4.31-5.67-4.81-8.63-1.33-7.85,3.01-16.35,11.99-12.44,5.08,2.21,8.82,7.63,7.52,13.35-.4,1.74-2.66,2.44-2.63,4.58.03,1.55,2.68,3.99,3.07,5.92.33,1.63-.12,3.33.2,4.96Z"/>
    <path class="cls-1" d="M230.46,128.21c2.07,2.07-.98,12.23,5.17,14.76,2.84,1.17,5.99-.27,6.14,3.49,1.59.4.84-2.29,2.07-2.65l3.56.83.2,3.16c1.46.27,1.29-2.18,2.53-2.61,3.69-1.27,3.91,1.02,3.96,3.95l2.02-3.39,3.73.33c1.23.41.64,2.45.75,3.51,1.22-.44,1.16-2.39,2.23-2.91.89-.43,3.7-.53,4.01.5.19.66-1.8,4.26-.2,3.76.65-.21,1.42-3.64,1.12-4.49h4.93c.2,1.89-1.53,3.57-1.77,5.18-.68,4.58,3.4,10.01-4.34,10.89-15.86,1.8-32.45-11.73-46.08-18.31-2.93-2.86-2.91-13.18.44-15.24,1.52-.94,8.24-2.07,9.54-.78Z"/>
    <path class="cls-1" d="M182.96,132.24c4.69-1.08,9.72,4.42,9.06,9.05-.28,2.01-3.13,6.32-5.02,7.09-3.17,1.29-4.71-.33-7.21-1.44-6.45,1.98-13.04,3.58-19.44,5.69-3.68,1.21-10.93,3.29-13.87,5.4-1.89,1.36-2.6,4.67-5.32,5.02-4.88.62-13.76-10.97-7.22-14.42,2.72-1.43,3.44-.24,5.46-.36,6.44-.38,17.42-4.81,23.86-7.05,4.01-1.39,11.72-3.4,15.01-5.15,1.66-.89,2.84-3.41,4.68-3.83Z"/>
    <path class="cls-1" d="M201.68,215.62l31.33,13.75c3.38,1.01,10.34.83,11.35,5.22,1.52,6.64-5.06,10.51-10.91,8.67-3.25-1.02-2.51-2.87-4.03-4.93-1.67-2.25-17.58-8.69-21.4-10.41-2.13-.96-8.52-2.85-9.45-4.44-.51-.87-.93-2.68-1.54-3.71l4.64-4.17Z"/>
    <path class="cls-1" d="M178.27,285.68c-2.47-2.47,1.52-6.11,2.66-8.11,2.72-4.77,6.49-11.99,8.52-17.02,1.03-2.56,2.67-11.18,3.49-12.19.28-.34.57-.73,1.07-.62,2.92,3.16,6.31,2.54,10.17,2.85,2.02,4.12-1.87,5.08-4.05,7.65-3.33,3.94-7.11,12.36-9.19,17.24-1.55,3.65-1.93,9.96-6.76,10.71-1.15.18-5.17.22-5.91-.53Z"/>
    <path class="cls-1" d="M194.66,287.64c.27,1.83,2.97,2,2.78,3.73-.03.31-4.77,4.07-4.05,4.71,2.96.89,4.12-3.48,5.7-3.95,2.49-.73,5,1.29,7.06,2.17,1.19.51,4.01.81,4.5,1.77.47,1.18.45,5.96-.91,6.28l-4.03-3.58c-1.61-.47.08,3.42.01,4.08-.07.61-.54,1.93-1.34,1.74l-2.7-4.92-1.22,3.02c-3.73,2.01-5.74-2.33-8.45-3.65-5.71-2.8-10.32,0-15.39-.25-5.94-.29-3.2-7.1.08-9.36,6.16,1.61,11.95-.52,17.97-1.79Z"/>
    <path class="cls-1" d="M118.26,211.29c-2.02-1.7-.8-4.6-1.07-6.77-.21-1.69-1.02-3.7-2.29-1.48-1.05,1.83-2.44,7.6-3.6,8.71-1.27,1.22-4.05.74-4.63-1.22-.9-3.02,4.81-9.65,5.19-13-.98-.17-1.68,1.41-2.15,2.1-1.68,2.44-3.64,8.42-4.99,9.79-1.46,1.48-4.22.92-4.5-1.41-.34-2.79,5.71-9.48,6.95-12.28.35-.8.12-.83-.46-1.34-2.46,1.56-7.72,12.47-9.5,12.93s-2.11-1.84-1.83-3.2c.47-2.32,5.77-10.5,7.75-11.97,4.9-3.66,7.01.88,10.56,2.87,2.55,1.43,4.9,1.22,6.89,4.31,1.46,2.27,2.98,11.62-.07,12.46-.77.16-1.64-.02-2.24-.52Z"/>
    <path class="cls-1" d="M256.03,188.65c1.33,3.99-1.92,12.69-6.76,11.94-3.69-.57-2.95-5.7-3.9-8.68-1.05-3.31-3.97-7.7-5.93-10.65-1.18-1.77-5.79-7.04-5.73-8.55.04-.93.77-1.98.88-3.17.14-1.55-.83-7.17,1.93-6.45.98.25,3.73,6.18,4.6,7.54,3.15,4.93,8.67,13.42,12.95,17.06.6.51,1.25.69,1.95.96Z"/>
    <path class="cls-1" d="M128.76,157.29c1.66-.45,4.76,2.05,3.48,3.96l-21.48,27.34c-2.8,1.36-6.95.75-4.47-3.13,4.84-5.63,9.55-11.41,14.08-17.28,1.43-1.85,6.97-10.51,8.4-10.9Z"/>
    <path class="cls-1" d="M292.27,168.98c1.89-.31,3.51-.31,4.8,1.25s3.68,8.51,3.38,10.48-3.13,2.03-4.49,1.37c-1.14-.56-3.22-5.91-4.69-5.6-2.25.48,2.2,5.4,1.92,6.88-.31,1.62-4,3.18-5.76,1.88-4.89-3.64-1.32-15.25,4.84-16.27Z"/>
    <path class="cls-1" d="M284.22,189.59c4.2-.5,4.45,3.57,1.45,5.04l-29.01,8.65-2.29-1.11c-.25-1.02.02-2,.62-2.82,1.89-2.59,12.94-4.48,16.44-5.51s9.41-3.84,12.79-4.24Z"/>
    <path class="cls-1" d="M133.95,163.64c.39-.33.84-.54,1.37-.51,1.07.23,2.71,3.68,1.84,4.83l-18.58,23.98c-1.82,2.49-5.86-.1-4.43-2.61l19.79-25.69Z"/>
    <path class="cls-1" d="M195.97,205.71c4.73-.27,5.01,6.2,3,9.28-1.09,1.67-6.47,6.34-8.34,6.89-2.21.64-8.05-.65-7.06-3.45.12-.33,3.98-2.49,5.26-4.61,2.1-3.48.21-5.45,4.39-7.26.73-.32,2.01-.8,2.75-.84Z"/>
    <path class="cls-1" d="M281.98,181.94c2.42-.32,3.72,3.57,1.88,4.6l-25.75,7.88c-.25-1.51-.78-4.76.71-5.6l23.17-6.88Z"/>
    <path class="cls-1" d="M242.66,243.68c1.45,3.87-.73,4.1-2.67,6.51-1,1.24-5.66,8.43-6.47,8.26l-5.12-5.67,1.28-9.1c1.43-.21,2.3,1.25,3.56,1.58,3.48.93,6.32-.27,9.42-1.58Z"/>
    <path class="cls-1" d="M212.57,151.48c.53.9-1.02,4.13-1.99,4.32-4.98-1.01-16.17-8.8-16.31-14.02-.03-1.06.38-2.25,1.58-2.3,1.44.12,5.77,5.48,7.43,6.73,2.69,2.04,6.42,3.42,9.29,5.27Z"/>
    <path class="cls-1" d="M174.13,201.12c2.14-.14,2.24,2.15,4.16,3.23,2.43,1.36,7.91.66,5.33,5.15s-3.73,1.75-6.69,1.59c-1.42-.08-2.94,1.07-4.17-.31-2.32-2.6,1.07-6.85,1.37-9.66Z"/>
    <path class="cls-1" d="M299.22,184.21c2.29-.09,7.57-1.54,9.47-1.32,2.71.31,2.87,4.44.28,5.48-3.33,1.34-12.8,1.94-9.75-4.16Z"/>
    <path class="cls-1" d="M296.41,185.45c.88,2.74,1.27,5.66.71,8.53-2.74,1.45-7-.36-8.1-3.19-.99-2.57,6.9-5.69,7.38-5.34Z"/>
    <path class="cls-1" d="M176.88,197.61l9.03.92c5.19,3.82-3.35,5.69-6.53,4.74-1.61-.48-4.11-3.9-2.49-5.67Z"/>
    <path class="cls-1" d="M220.76,160.76c-.06-.86-.32-2.87.37-3.34.33-.23,7.46-1.58,7.86-1.54,1.65.16,1.97,2.76,1.98,4.18-2.77,2.73-6.93,1.52-10.21.7Z"/>
    <path class="cls-1" d="M310.23,180.45c-4.6,2.02-8.62,2.94-8.69-3.53,4.07-1.37,9.78-3,8.69,3.53Z"/>
    <path class="cls-1" d="M309.31,193.86c-1.48,1.44-7.75,1.19-9.65,0-.41-.63-.65-2.87.19-3.05l9.27-.36c1.18.36.81,2.81.19,3.42Z"/>
    <path class="cls-1" d="M306.61,169.43c.51.55,1.36,3.75.96,4.31-4.45,1.39-7.12,2.29-7.54-3.37-.24-3.24,5.47-2.14,6.58-.95Z"/>
    <path class="cls-1" d="M114.77,209.65c2.23,1.28.68,8.31-.97,8.88-1.36.47-3.04.25-3.53-1.25-1.22-3.68,3.43-4.28,4.5-7.63Z"/>
    <polygon class="cls-1" points="260.07 136.68 260.39 142.02 256.1 142.44 256.3 137.04 260.07 136.68"/>
    <path class="cls-1" d="M253.84,141.98l-4.42-.92c-.32-7.58,7.06-6.18,4.42.92Z"/>
    <path class="cls-1" d="M267.31,142.44l.19-4.95c4.51-1.89,4.21,1.53,3.63,4.98l-3.82-.03Z"/>
    <path class="cls-1" d="M265.85,137.18c.26.3.56,1.87.55,2.35-.05,3.34-.97,3.72-4,2.89.1-1.7-.82-5.56,1.56-5.8.48-.05,1.58.21,1.89.57Z"/>
    <path class="cls-1" d="M243.59,140.63c-1.52-4.55,3.85-7.51,4.41-2.39.44,4.07-1.46,2.74-4.41,2.39Z"/>
    <path class="cls-1" d="M102.95,216.76c-1.11-6.1,7.17-5.09,4.45.75l-4.45-.75Z"/>
    <path class="cls-1" d="M274.88,137.11c.64,1.6.74,3.42.08,5.04l-2.72.73.66-5.38,1.98-.4Z"/>
    <path class="cls-1" d="M101.05,213.61c-1.57,1.13-4.61-2.37-4.42-3.29.43-2.12,6.39,1.11,4.42,3.29Z"/>
  </g>
</svg>