<?xml version="1.0" encoding="UTF-8"?>
<svg id="_Слой_1" data-name="Слой 1" xmlns="http://www.w3.org/2000/svg" viewBox="0 0 406.11 408.67">
  <defs>
    <style>
      .cls-1 {
        fill: #fff;
      }
    </style>
  </defs>
  <g>
    <path d="M86.3.5h233.52c47.35,0,85.8,38.45,85.8,85.8v233.52c0,47.35-38.45,85.8-85.8,85.8H86.3c-47.35,0-85.8-38.45-85.8-85.8V86.3C.5,38.95,38.95.5,86.3.5Z"/>
    <path d="M319.81,1c47.03,0,85.3,38.27,85.3,85.3v233.52c0,47.03-38.27,85.3-85.3,85.3H86.3c-47.03,0-85.3-38.27-85.3-85.3V86.3C1,39.27,39.27,1,86.3,1h233.52M319.81,0H86.3C38.64,0,0,38.64,0,86.3v233.52C0,367.48,38.64,406.11,86.3,406.11h233.52c47.66,0,86.3-38.64,86.3-86.3V86.3C406.11,38.64,367.48,0,319.81,0h0Z"/>
  </g>
  <g>
    <path class="cls-1" d="M130.93,191.01c-.35,1.01.02,1.92.32,2.86,1.36,4.17,6.24,12.95,8.57,17.08,2.12,3.77,2.89,6.74,7.69,7.19,7.56.71,15.58-.36,23.09-.55,3.91-.1,16.24.8,18.73-.77,1.36-.86,2.85-2.73,4.47-3.74,9.35-5.81,24.2-4.23,23.28,9.42-.69,10.18-12.39,12.73-20.8,12.03-7.24-.61-8.36-.32-15.47.46-12.1,1.31-28.07,3.68-39.98,2.65-17.17-1.49-27.64-34.06-35.13-46.97-2.4-2.87-5.75-.01-4.78,3.76,1.81,7.09,6.62,15.08,9.41,21.94-1.29,4.35-8.79,13.28-6.92,17.65.7,1.65,23.54,14.37,27.38,17.26,7.56,5.68,8.81,7.89,5.44,17.13-3.79,10.35-10.85,20.42-15.06,30.61-.61,1.49-2.32,4.84-1.5,6.24.96,1.65,14.17,6.4,15.57,10.85,1.55,4.95-2.11,9.4-7.21,9.31-3.7-.07-20.83-4.95-24.87-6.48s-6.84-3.4-5.95-8.47c.77-4.35,5.26-13.3,6.96-18.19,1.79-5.14,4-10.98,5.38-16.17.85-3.23,2.6-6.59-1.14-8.6-29.51-12.75-72.04-16.57-52.05-60.5,7.4-16.27,26.99-41.79,43.87-48.49,3.09-1.23,9.01-3.19,12.18-2.24,6.81,4.67,13.93,8.94,20.66,13.71,1.71,1.21,8.88,5.91,9.09,7.37.43,3.06-7.44,13.2-11.23,13.65Z"/>
    <path class="cls-1" d="M224.75,115.5l-64.96-17.9c-23.76-.64-18.48,35.87-2.41,43.97l52.41,30.98c1.12,1.89-2.8,5.19-4.07,6.27-4.6,3.95-15.7,10.84-21.71,10.01-4.54-.63-21.46-11.57-26.43-14.62-15.94-9.79-32.75-20.7-47.93-31.61-2.51-1.8-8.26-5.41-10.06-7.39-.64-.71-.88-1.06-1.04-2.04-.56-3.53.14-11.49.49-15.36,2.28-25.74,14.64-48.56,40.42-56.56,38.49-11.95,81.96,12.91,85.29,54.24Z"/>
    <path class="cls-1" d="M271.02,189.99c-.73,23.57-12.77,44.64-29.84,60.22-2.12,1.93-11.64,8.59-12.36,9.71-.8,1.24-.64,5.22-1.13,7.08-1.38,5.26-4.27,7.29-9.6,5.26-6.33-2.4-6.69-7.96-10.27-12.83-13.4-2.11-26.89-7.03-37.97-14.88l19.76-3.33c14.86,4.06,34.41-.4,35.17-18.71.71-17.19-15.61-23.96-30.29-18.49-4.18,1.56-6.95,4.89-11.07,6.38l-35.8.05-7.42-14.22c-.25-2.86,10.37-11.22,13.05-12.89l26.86,14.27c.73.99-3.16,2.45-1.81,4.62,2.94,2.51,5.89-1.52,8.33-2.99,6.43-3.89,13.13-7.16,20.58-8.67,4.68-.94,9.44-.89,14.1-1.81,4.14-3.46-2.09-5.41-5.49-4.97-1.65.21-2.89,1.49-4.4,1.24,3.96-4.29,6.72-9.52,8.57-15.03,1.29-3.84,1.83-9.13,3.34-12.57.37-.84.52-1.86,1.64-1.89,1.26-.04,7.69,1.89,9.41,2.41,7.52,2.25,16.02,6,22.66,10.19,1.87,1.18,8.16,6.5,9.14,6.79,1.79.53,4.77-1.62,7.12-1.91,3.16-.38,8.73-.14,11.16,2.07,7.12,6.49-9.13,13.05-13.44,14.89ZM259.47,200.24c-.87.29-6.77,13.05-7.95,15.15-4.94,8.81-11.08,17.25-18.05,24.54-1.45,1.52-7.68,6.25-8.12,7.8-.21.73-.23,1.43.41,1.98.82.59,1.54-.03,2.24-.37,7.21-3.47,18.66-16.28,23.13-23.05,3.66-5.54,9.65-17.16,10.86-23.54.39-2.05-.16-3.3-2.52-2.51Z"/>
    <path class="cls-1" d="M265.29,112.43c-16.78,7.36-36.97-15.42-19.58-28.48-5.83-6.91-4.87-15.3.61-22.06,6.3-7.76,15.1-8.88,24.31-6.02,7.55-10.85,21.16-13.7,32.8-7.49,4.41,2.35,6.04,5.26,8.93,9.07,3.29-.11,6.34-1.92,9.64-2.02,16.53-.46,28.26,22.33,16.18,34.67,8.9,9.16,3.94,25.22-6.53,30.95-8.23,4.5-16.97,2.34-24.5-2.46-10.9,14.55-36.22,11.88-41.86-6.16ZM304.81,93.95l15.27-19.36c1.44-2.46-.52-5.12-2.58-6.42l-17.56-1.45c-3.29.39-4.47,2.75-3.84,5.93.71,3.57,9.94,1.91,12.81,3.09l-15.11,18.75c-1.06,2.57.16,6.08,3.08,6.62,6.2,1.16,13.58.33,19.88,1.48,2.61-.96,4.33-3.44,3.36-6.24-.87-2.5-12.62-2.28-15.31-2.39ZM272.99,98.05l12.76-14.69c1.08-2.18,1.02-4.99-1.21-6.36-1.8-1.11-16.84-3.04-18.89-2.45-2.24.64-2.85,4.96-1.16,6.59s8.08,1.42,10.54,2.28l-13.37,14.34c-1.14,1.67-.43,4.44,1.08,5.64,2.39,1.89,14.88,1.34,18.57,2.26,2.22-.64,3.5-2.95,2.85-5.19-.86-2.92-8.64-2.3-11.19-2.43Z"/>
    <path class="cls-1" d="M144.78,270.04c1.75-1.09,8.6,3.96,10.2,5.3,30.03,25.26,13.85,75.83-23.51,84.26-48.15,10.87-82.25-45.92-48.49-81.87,3.2,1.8,14.27-3.51,14.57,1.71.2,3.53-3.16,4.43-4.94,6.39-27.24,30.18,5.7,74.85,42.19,59.12,27.03-11.65,29.99-49.4,5.33-65.08l4.66-9.85Z"/>
    <path class="cls-1" d="M221.11,124.79c1.27,1.47-6.26,33.98-9.94,37.36-10.08-5.17-20.1-10.53-29.86-16.28-10.08-5.93-25.16-12.38-26.33-25.5-.44-4.89-1.38-13.86,5.75-12.97l60.39,17.38ZM183.38,137.9c4.6,4.73,13.75,3.22,14.63-3.56-2.21-3.73-4.4-.2-6.97.04-4.85.44-4.94-4.98-8.06-4.52-4.06.59-1.4,6.18.41,8.04Z"/>
    <path class="cls-1" d="M254.26,124.52c12.63,0,11.99,18.73-2.96,13.96-9.87-3.15-6.05-13.96,2.96-13.96Z"/>
    <path class="cls-1" d="M109.65,327.5c.64-.21,1.2-.05,1.83.04,1.02.14,10.88,3.17,11.37,3.53,1.74,1.28.87,4.07-1.42,4.04-.79-.01-11.38-2.94-12.1-3.34-1.66-.93-1.13-3.8.32-4.27Z"/>
    <path class="cls-1" d="M235.89,141.78c7.61-2.24,8.43,8.34,1.95,8.35-5.29,0-6.07-7.14-1.95-8.35Z"/>
  </g>
</svg>