<?xml version="1.0" encoding="UTF-8"?>
<svg id="_Слой_1" data-name="Слой 1" xmlns="http://www.w3.org/2000/svg" viewBox="0 0 406.11 408.91">
  <defs>
    <style>
      .cls-1 {
        fill: #fff;
      }
    </style>
  </defs>
  <g>
    <rect x=".5" y="1.88" width="405.11" height="405.11" rx="85.8" ry="85.8"/>
    <path d="M319.81,2.38c47.03,0,85.3,38.27,85.3,85.3v233.52c0,47.03-38.27,85.3-85.3,85.3H86.3c-47.03,0-85.3-38.27-85.3-85.3V87.68C1,40.65,39.27,2.38,86.3,2.38h233.52M319.81,1.38H86.3C38.64,1.38,0,40.02,0,87.68v233.52C0,368.86,38.64,407.5,86.3,407.5h233.52c47.66,0,86.3-38.64,86.3-86.3V87.68c0-47.66-38.64-86.3-86.3-86.3h0Z"/>
  </g>
  <g>
    <path class="cls-1" d="M213.27,198.39c-6.16,8.05-12.49,16.4-18.02,24.93-1.7,2.62-4.05,4.68-.97,7.3,5.25,4.48,21.11,11.26,23.41,16.99,2.8,6.96-4.04,19.89-6.28,27.15-.46,1.51-2.34,6.89-2.28,7.93.05.82.63,1.11,1.14,1.59,3.23,3.07,11.42,6.48,12.18,11.03,1.44,8.56-5.63,9.23-12.19,8.94-3.93-.17-15.25-.94-18.53-1.9-11-3.21-2.52-17.14-.27-23.86,1.46-4.37,3.32-9.29,4.4-13.71s1.54-5.28-2.41-7.8c-7.32-4.68-16.08-8.52-23.67-13.01-11.02-6.52-19.29-11.13-12.4-25.56l24.32-38.13c-6.72,1.45-13.54,2.81-20.16,4.68-7.8,2.2-7.98,2.61-13.51,8.32-6.35,6.55-11.99,14.15-18.55,20.45-7.75,7.44-19.37,2.05-17.77-8.95.96-6.59,11.77-15.36,16.37-20.31,7.24-7.79,12.9-17.11,23.34-20.31,12.11-3.71,25.24-5.97,37.48-9.42,8.71-1.18,15.88,4.82,22.76,9.27,3.46,2.24,10.56,6.45,13.24,9.05,4.43,4.3,11.15,17.02,15.2,22.87.95,1.37,5.45,8.24,6.25,8.61,1.11.51,2.62.4,3.83.33,4.78-.28,13.7-1.81,18.44-2.92,5.12-1.2,7.75-4.61,14.02-4.46,13.67.34,17.46,20,4.32,24.66-6.44,2.28-8.18-.76-13.09-.94-9.7-.35-27.35,6.9-35.85,3.71-1.01-.38-2.1-1.02-2.94-1.7l-21.82-24.85Z"/>
    <path class="cls-1" d="M301.04,113.88l-63.4-13c-6.32-.55-9,6.09-9.49,11.39-1.26,13.53,5.75,16.4,15.64,22.42,16.33,9.95,33.26,18.98,49.63,28.87l.13.62c-4.86,14.2-13.57,23.38-29.51,17.12s-38.2-18.25-53.23-27.11c-17.57-10.36-27.16-17.01-25.88-39.63,2.16-38.31,34.92-55.23,70.24-49.31,25.11,4.21,43.76,22.93,45.86,48.63Z"/>
    <path class="cls-1" d="M184.49,259.69c.73.62-2.23,2.04-2.79,2.55-40.8,36.53,7.13,92.51,47.98,64.69,25.89-17.63,22.35-56.45-5.66-69.62-.06-1.5,1.06-2.36,1.3-3.93.65-4.39-.9-7.64-3.67-10.87,15.16,4.02,27.89,15.43,33.98,29.87,19.05,45.12-26.23,88.22-70.51,69.12-36.24-15.63-42.21-62.47-13.32-88.27,3.68,2.94,7.77,6.31,12.71,6.47Z"/>
    <path class="cls-1" d="M301.5,122.7c-.79,10.25-1.67,21.49-4.63,31.37-.16.52.31.82-.7.67l-30.4-18.36c-1.87-1.72-6.14-15.41-6.02-18.05s2.37-3.9,4.82-3.52l36.93,7.9Z"/>
    <path class="cls-1" d="M93.58,134.77c-.31-1.25,1.07-1.07,1.8-1.25,10.53-2.62,26.64-1.53,37.83-1.98,3.84-.15,8.16-.88,11.99-.97,2.33-.06,7.32-.44,9.32.12.53.15,1.53.95,1.79,1.5,3.29,6.84-10.09,4.45-12.21,4.42-16.87-.21-33.7-.44-50.52-1.84Z"/>
    <path class="cls-1" d="M72.22,166.81l.53-.92c5.68.11,11.32-1.01,16.97-1.41,9.07-.65,21.57-1.96,30.37-.93,2.5.29,3.65,3.01,2.29,5.78-1.2,2.44-8.43.82-10.6.72-9.25-.41-18.59-.6-27.82-1.38-1.58-.13-11.17-1.13-11.74-1.86Z"/>
    <path class="cls-1" d="M83.15,241.57c-.5-.64.02-.85.52-.92,1.21-.19,2.98-.4,4.19-.48,11.97-.82,24.07-.26,36.06-.93,2.28-.23,3.71,3.03,2.27,5.38s-6.24.8-8.23.69c-9.48-.54-19.64-.71-29.03-1.87-2.06-.25-3.85-.96-5.78-1.86Z"/>
    <path class="cls-1" d="M137.32,278.61c-.58.93-6.32.64-7.56.57-4.88-.28-9.82-1.28-14.69-1.85-3.38-.39-7,.25-10.22-1.63.33-.77.79-.67,1.28-.72,4.43-.5,8.84-.64,13.27-.88,4.92-.27,11.59-1.4,16.41-.49,1.7.32,2.66,3.15,1.51,5.01Z"/>
    <path class="cls-1" d="M69.77,203.49l.32-1.63c.92-.18,1.86-.55,2.78-.68,5.92-.85,11.98-.73,17.92-.92,1.89-.06,5.47-1.75,6.82.92.96,1.9.39,4.38-1.28,4.66-8.87-.37-17.76-.91-26.56-2.35Z"/>
  </g>
</svg>