<?xml version="1.0" encoding="UTF-8"?>
<svg id="_Слой_1" data-name="Слой 1" xmlns="http://www.w3.org/2000/svg" viewBox="0 0 406.11 406.11">
  <defs>
    <style>
      .cls-1 {
        fill: #fff;
      }
    </style>
  </defs>
  <g>
    <path d="M86.3.5h233.52c47.35,0,85.8,38.45,85.8,85.8v233.51c0,47.35-38.45,85.8-85.8,85.8H86.3c-47.35,0-85.8-38.45-85.8-85.8V86.3C.5,38.95,38.95.5,86.3.5Z"/>
    <path d="M319.81,1c47.03,0,85.3,38.27,85.3,85.3v233.52c0,47.03-38.27,85.3-85.3,85.3H86.3c-47.03,0-85.3-38.27-85.3-85.3V86.3C1,39.27,39.27,1,86.3,1h233.52M319.81,0H86.3C38.64,0,0,38.64,0,86.3v233.52C0,367.48,38.64,406.11,86.3,406.11h233.52c47.66,0,86.3-38.64,86.3-86.3V86.3C406.11,38.64,367.48,0,319.81,0h0Z"/>
  </g>
  <g>
    <path d="M255.39,58.42c-36.99,1.76-56.44,32.34-52.24,67.46.3,2.5.98,7.83,2.67,9.64,27.05,13.93,53.71,29.06,81.1,42.37,3.44,1.67,6.06,3.71,10.02,2.25s7.45-6.98,9.59-10.45c1.18-1.91,5.88-9.88,4.8-11.63-2.14-1.34-4.91-1.44-7.33-2.26-13.47-4.53-28.85-11.25-41.53-17.7-11.74-5.97-29.24-14.51-27.43-30.34,1.09-9.5,8.93-11.01,16.98-10.24,18.55,1.77,38.55,8.19,57.06,9.91,2.82.26,5.29.71,5.2-2.88-.13-5.26-4.25-14.84-7.12-19.35-11.32-17.8-30.59-27.79-51.76-26.78ZM140.22,83.35c.18.86.9.82,1.58.92,8.84,1.2,18.42,1.07,27.37,1.34,7.8.23,16.3,1.27,24.12.47,1.53-.16,3.93-.49,3.88-2.52-.03-1.48-2.81-1.52-3.86-1.59-10.04-.68-20.51.23-30.52.49-7.54.19-15.1-.25-22.58.9ZM162.86,101.32c-22.94.25-46.5.14-69.34,1.62-.82.05-5.69.53-5.69,1.13,1.26.84,3.69.98,5.23,1.14,14.64,1.49,29.95,1.72,44.66,2.26,12.8.47,29.36,1.99,41.91.95,5.73-.47,4.67-6.06.68-7.09s-12.97-.06-17.46,0ZM274.28,133.34c.59.63,2.53.82,3.3,1.47l.65-1.07c-1.35-3.04-2.94-21.9-4.52-22.84-1.83-1.09-3.7.06-3.67,2.25.04,3.34,2.38,14.04,3.33,17.67.17.65.51,2.11.9,2.52ZM283.27,112.5l5.43,26.68c.6.83,14.81,6.11,16.91,6.78,1.35.43,5.88,2.1,6.85,1.42,1.59-9.75.29-19.64-.71-29.43l-28.48-5.46ZM183.85,129.25c1.28-1.87.2-3.8-1.92-4.02-22.14.6-45.04-.92-67.02.92-.81.07-1.47-.14-2.02.7.55.86,1.22.62,2.02.7,12.22,1.13,24.67,1.32,36.94,1.79,8.53.33,18.41,1.52,26.88.95.95-.06,4.63-.56,5.11-1.04ZM212.04,249.33l1.06,1.93-11.64,37.06c-.51,4.05-.77,7.43,2.84,9.97,4.16,2.92,9.29,1.68,14.07,1.88s9.82,1.05,14.57.48c5.32-.63,5.04-6.72,2.59-10.35-1.78-2.63-9.94-5.51-10.49-7.29-.13-.41-.13-.83-.11-1.26,3.18-12.36,9.57-24.87,12.55-37.15,1.28-5.27.58-7.54-3.81-10.76-6.98-5.14-17.06-8.68-23.72-13.64-2.26-1.68-2.88-3.79.39-4.55,2.58-.6,4.75.49,7.1-1.56,2.97-2.59,7.42-8.4,10.23-11.63,3.53-4.06,6.86-8.36,10.23-12.55,1.78-1.32,3.67.14,3.77,2.15.12,2.3-2.84,5.12-2.51,7.55.21,1.58,4.97,11.15,6.05,13.11,2.4,4.34,4.9,7.07,10.15,7.62l32.7-3.47c27.3,14.57,30.83-32.16,3.16-22.39-2.09.74-4.6,2.64-6.47,3.1-6.47,1.58-15.14.77-21.83,2.35l-3.46-1.91c-3.19-7.3-4.6-16.56-7.75-23.69-.6-1.36-.99-2.3-2.15-3.31-14.42-7.14-28.78-15.98-43.29-22.77-4.67-2.19-5.89-2.36-11.04-1.45-8.92,1.57-29.58,6.93-37.27,11.02-8.84,4.69-18.66,21.85-25.52,30.06-4.64,5.56-11.76,9.87-6.84,18.71,4.03,7.24,14.48,9.26,20.47,3.12,4.38-4.49,1.83-6.99,2.88-11.7.56-2.52,15.28-17.52,17.91-19,3.97-2.23,16.13-3.99,21.01-4.5,3.98-.41,9.07-1.14,6.88,4.83l-14.43,7.66c-8.28,12.42-20.55,32.18-3.63,43.21l35.34,19.11ZM74.16,149.86c21.32,1.47,42.66,2.03,64.03,2.76,2.42-.45,6.13.11,6.55-2.98,0-4.61-9.86-2.53-12.47-2.49-6.85.11-13.71.28-20.5.46-12.29.31-24.56.39-36.84.97l-.76,1.29ZM94.21,171.72c2.18.28,4.43.7,6.61.91,7.07.67,15.72,1.33,22.75,1.39,1.77.01,7.47.56,7.53-2.05.05-1.92-1.93-2.41-3.39-2.54-8.18-.74-22.08.22-30.54.94-.43.04-3.98.39-2.97,1.36ZM57.76,194.5c14.47,1.56,28.95,2.39,43.53,2.72,2.38.05,4.6.74,7.27.47,4.51-.46,6.98-3.14,2.17-5.8l-52.4,1.59-.57,1.03ZM72.34,230.49c6.86,1.03,13.84.92,20.73,1.37,6.04.4,12.16,1.12,18.19,1.36,12.05.48,28.45,1.54,40.15.47,2.22-.2,3.6-.96,3.44-3.44-.35-5.37-12.13-2.99-15.73-2.94-19.12.25-38.33.37-57.45,1.34-2.31.12-5.48.26-7.69.52-.82.1-1.96.24-1.63,1.32ZM198.08,333.91c-14.93.84-29.95.32-44.89.89-1.08.04-2.07.44-3.15.49-1.42.07-9.78-.58-9.8,1.12,2.55,1.83,5.97.91,8.87,1.14,16.53,1.33,33.95,2.04,50.55,2.29,25.54.39,44.1.68,61.49-20.55,19.14-23.37,12.92-59.62-13.18-74.68l-3.73,11.63c36.01,28.87,3.58,84.53-40.09,65.9-25.18-10.74-30.23-46.05-9.72-64.1l5.01-3.86-11.5-5.39c-17.19,11.99-22.52,36.01-15.95,55.4,3.47,10.24,11.72,19.89,20.66,25.81.41.27,6.44,3.02,5.43,3.91ZM98.31,251.91l1.14,1.36c13.23.91,26.4,1.53,39.63,1.83,4.84.11,9.47.99,14.48-.11,4.53-1,2.5-4.61-1.24-4.47l-54,1.39ZM151.03,273.44c-2.63-2.79-19.35-1.04-23.77-1.01-14.9.13-29.35.24-44.18.89-1.2.05-9.86-.37-9.83.69l1.15,1.13c17.64,1.35,35.18,1.88,52.87,2.26,6.82.14,14.09,1.13,20.96.5,2.5-.23,4.78-2.38,2.82-4.46ZM154.23,298.27c.28-.28.37-.75.5-1.13l-.13-1.03c-.72-.93-1.61-1.25-2.75-1.38-10-1.18-24.74.5-35.1.92-4.14.17-8.16.11-12.32.44-.81.06-1.47-.13-2.02.7-.02.61,4.86,1.07,5.69,1.13,11.03.9,23.62,1.73,34.6,1.85,2.14.02,10.24-.23,11.52-1.5ZM158.3,320.57c2.42-2.9-2.56-3.82-4.62-3.98-7.13-.55-26.56-.14-33.28,1.33-.73.16-1.54-.05-2.04.73,1.72.76,4.18.92,6.15,1.13,7.34.77,15.89,1.64,23.2,1.83,2.32.06,9.25.55,10.6-1.05Z"/>
    <path class="cls-1" d="M212.04,249.33l-35.34-19.11c-16.91-11.03-4.64-30.78,3.63-43.21l14.43-7.66c2.19-5.97-2.9-5.24-6.88-4.83-4.88.5-17.04,2.27-21.01,4.5-2.63,1.48-17.34,16.48-17.91,19-1.05,4.71,1.5,7.21-2.88,11.7-5.99,6.14-16.44,4.12-20.47-3.12-4.92-8.84,2.2-13.15,6.84-18.71,6.86-8.21,16.68-25.37,25.52-30.06,7.69-4.09,28.35-9.45,37.27-11.02,5.15-.91,6.36-.74,11.04,1.45,14.51,6.79,28.87,15.63,43.29,22.77,1.17,1.01,1.56,1.96,2.15,3.31,3.15,7.13,4.56,16.39,7.75,23.69l3.46,1.91c6.68-1.58,15.36-.77,21.83-2.35,1.87-.46,4.38-2.36,6.47-3.1,27.67-9.77,24.14,36.96-3.16,22.39l-32.7,3.47c-5.25-.55-7.76-3.28-10.15-7.62-1.08-1.96-5.84-11.53-6.05-13.11-.33-2.43,2.63-5.26,2.51-7.55-.1-2.01-2-3.47-3.77-2.15-3.37,4.19-6.7,8.49-10.23,12.55-2.81,3.24-7.27,9.05-10.23,11.63-2.35,2.05-4.52.96-7.1,1.56-3.28.76-2.65,2.87-.39,4.55,6.66,4.96,16.73,8.5,23.72,13.64,4.39,3.23,5.09,5.49,3.81,10.76-2.98,12.28-9.37,24.79-12.55,37.15-.03.42-.02.85.11,1.26.55,1.78,8.71,4.66,10.49,7.29,2.46,3.63,2.74,9.72-2.59,10.35-4.75.56-9.86-.29-14.57-.48s-9.91,1.04-14.07-1.88c-3.61-2.54-3.35-5.92-2.84-9.97l11.64-37.06-1.06-1.93Z"/>
    <path class="cls-1" d="M255.39,58.42c21.18-1.01,40.45,8.98,51.76,26.78,2.87,4.51,6.99,14.09,7.12,19.35.09,3.59-2.38,3.14-5.2,2.88-18.51-1.72-38.51-8.14-57.06-9.91-8.05-.77-15.89.74-16.98,10.24-1.82,15.83,15.68,24.36,27.43,30.34,12.68,6.45,28.06,13.17,41.53,17.7,2.41.81,5.19.92,7.33,2.26,1.08,1.75-3.62,9.72-4.8,11.63-2.14,3.47-5.7,9.02-9.59,10.45s-6.58-.58-10.02-2.25c-27.38-13.3-54.05-28.44-81.1-42.37-1.69-1.8-2.37-7.13-2.67-9.64-4.2-35.12,15.25-65.71,52.24-67.46Z"/>
    <path class="cls-1" d="M198.08,333.91c1.01-.89-5.02-3.63-5.43-3.91-8.94-5.92-17.19-15.56-20.66-25.81-6.57-19.39-1.23-43.41,15.95-55.4l11.5,5.39-5.01,3.86c-20.51,18.05-15.46,53.36,9.72,64.1,43.67,18.63,76.1-37.03,40.09-65.9l3.73-11.63c26.1,15.05,32.32,51.31,13.18,74.68-17.39,21.23-35.96,20.94-61.49,20.55-16.6-.25-34.01-.95-50.55-2.29-2.9-.23-6.32.68-8.87-1.14.03-1.7,8.39-1.05,9.8-1.12,1.08-.05,2.07-.45,3.15-.49,14.94-.57,29.96-.06,44.89-.89Z"/>
    <path class="cls-1" d="M283.27,112.5l28.48,5.46c.99,9.78,2.29,19.67.71,29.43-.96.68-5.49-.98-6.85-1.42-2.1-.67-16.31-5.95-16.91-6.78l-5.43-26.68Z"/>
    <path class="cls-1" d="M162.86,101.32c4.49-.05,13.52-1.01,17.46,0s5.05,6.62-.68,7.09c-12.55,1.04-29.11-.48-41.91-.95-14.71-.54-30.03-.77-44.66-2.26-1.54-.16-3.98-.29-5.23-1.14,0-.6,4.87-1.08,5.69-1.13,22.84-1.48,46.39-1.36,69.34-1.62Z"/>
    <path class="cls-1" d="M72.34,230.49c-.32-1.08.81-1.22,1.63-1.32,2.21-.26,5.38-.4,7.69-.52,19.12-.96,38.32-1.09,57.45-1.34,3.61-.05,15.39-2.43,15.73,2.94.16,2.48-1.22,3.24-3.44,3.44-11.7,1.07-28.1,0-40.15-.47-6.03-.24-12.15-.97-18.19-1.36-6.89-.45-13.87-.35-20.73-1.37Z"/>
    <path class="cls-1" d="M151.03,273.44c1.96,2.08-.32,4.23-2.82,4.46-6.87.63-14.14-.35-20.96-.5-17.69-.38-35.23-.91-52.87-2.26l-1.15-1.13c-.03-1.05,8.63-.63,9.83-.69,14.83-.66,29.28-.77,44.18-.89,4.42-.04,21.15-1.78,23.77,1.01Z"/>
    <path class="cls-1" d="M74.16,149.86l.76-1.29c12.28-.58,24.56-.66,36.84-.97,6.79-.17,13.65-.35,20.5-.46,2.61-.04,12.48-2.12,12.47,2.49-.42,3.09-4.13,2.53-6.55,2.98-21.37-.73-42.71-1.29-64.03-2.76Z"/>
    <path class="cls-1" d="M183.85,129.25c-.48.47-4.16.97-5.11,1.04-8.47.58-18.35-.62-26.88-.95-12.26-.47-24.72-.66-36.94-1.79-.81-.07-1.47.16-2.02-.7.55-.84,1.21-.63,2.02-.7,21.98-1.84,44.88-.32,67.02-.92,2.11.21,3.19,2.15,1.92,4.02Z"/>
    <path class="cls-1" d="M57.76,194.5l.57-1.03,52.4-1.59c4.81,2.66,2.34,5.35-2.17,5.8-2.66.27-4.89-.42-7.27-.47-14.58-.32-29.06-1.16-43.53-2.72Z"/>
    <path class="cls-1" d="M98.31,251.91l54-1.39c3.74-.14,5.77,3.47,1.24,4.47-5.01,1.1-9.63.22-14.48.11-13.23-.3-26.4-.92-39.63-1.83l-1.14-1.36Z"/>
    <path class="cls-1" d="M154.23,298.27c-1.28,1.27-9.38,1.52-11.52,1.5-10.98-.12-23.57-.95-34.6-1.85-.83-.07-5.71-.52-5.69-1.13.55-.84,1.21-.64,2.02-.7,4.16-.33,8.18-.27,12.32-.44,10.36-.42,25.1-2.09,35.1-.92,1.13.13,2.02.46,2.75,1.38l.13,1.03c-.12.38-.22.85-.5,1.13Z"/>
    <path class="cls-1" d="M140.22,83.35c7.47-1.15,15.04-.71,22.58-.9,10-.26,20.48-1.17,30.52-.49,1.05.07,3.83.11,3.86,1.59.04,2.03-2.36,2.37-3.88,2.52-7.82.8-16.32-.23-24.12-.47-8.95-.27-18.53-.13-27.37-1.34-.68-.09-1.4-.06-1.58-.92Z"/>
    <path class="cls-1" d="M158.3,320.57c-1.34,1.6-8.28,1.11-10.6,1.05-7.31-.19-15.85-1.05-23.2-1.83-1.97-.21-4.43-.37-6.15-1.13.51-.79,1.31-.57,2.04-.73,6.72-1.47,26.15-1.89,33.28-1.33,2.06.16,7.05,1.09,4.62,3.98Z"/>
    <path class="cls-1" d="M94.21,171.72c-1.01-.96,2.53-1.32,2.97-1.36,8.46-.72,22.36-1.68,30.54-.94,1.45.13,3.43.62,3.39,2.54-.06,2.61-5.76,2.07-7.53,2.05-7.02-.06-15.68-.72-22.75-1.39-2.18-.21-4.43-.63-6.61-.91Z"/>
    <path class="cls-1" d="M274.28,133.34c-.39-.41-.73-1.87-.9-2.52-.95-3.62-3.3-14.33-3.33-17.67-.03-2.19,1.84-3.34,3.67-2.25,1.58.94,3.17,19.8,4.52,22.84l-.65,1.07c-.78-.65-2.71-.84-3.3-1.47Z"/>
  </g>
</svg>