<?xml version="1.0" encoding="UTF-8"?>
<svg id="_Слой_1" data-name="Слой 1" xmlns="http://www.w3.org/2000/svg" viewBox="0 0 404.08 406.12">
  <defs>
    <style>
      .cls-1 {
        fill: #fff;
      }
    </style>
  </defs>
  <g>
    <path d="M84.26.51h233.51c47.35,0,85.8,38.45,85.8,85.8v233.51c0,47.35-38.45,85.8-85.8,85.8H84.26c-47.35,0-85.8-38.45-85.8-85.8V86.31C-1.54,38.95,36.91.51,84.26.51Z"/>
    <path d="M317.78,1.01c47.03,0,85.3,38.27,85.3,85.3v233.52c0,47.03-38.27,85.3-85.3,85.3H84.26c-47.03,0-85.3-38.27-85.3-85.3V86.31C-1.04,39.27,37.23,1.01,84.26,1.01h233.52M317.78,0H84.26C36.6,0-2.04,38.64-2.04,86.31v233.52c0,47.66,38.64,86.3,86.3,86.3h233.52c47.66,0,86.3-38.64,86.3-86.3V86.31C404.08,38.64,365.44,0,317.78,0h0Z"/>
  </g>
  <g>
    <path class="cls-1" d="M148.27,212.34c-1.57,1.46-3.28,8.61-4.89,11.3-4.31,7.22-14.91,11.24-23.07,10.8-7.17-.39-34.81-10.1-42.12-13.46-15.42-7.1-15.89-24.39-7.98-37.64,1.8-3.01,5.48-4.78,4.93-8.36l3.39,6.51c5.12,6.41,24.75,14.09,32.94,15.88,10.38,2.27,17.31,1.49,21.68-9.09,2.74-6.64,8.71-23.08,9.92-29.71,1.96-10.69-6.57-8.71-13.43-9.82-9.47-1.54-21.44-5.31-30.03-9.6-4.56-2.29-8.57-4.29-7.99-10.27.36-3.73,4.83-17.63,7.42-20.13,3.84-3.7,5.99-.8,9.94.73,11.17,4.32,22.89,8.29,34.6,10.83l42.74.28c6.49,2.91-2.94,9.51-.07,13.12.54.69,6.94,2.05,8.51,2.6,4.05,1.42,9.41,4.32,12.54,7.27,3.81,3.61.14,5.51-3.37,7.09-4.28-3.27-9.19-6.03-14.27-7.82-10.03-3.53-9.78-2.81-14.08,6.18-7.73,16.15-14.09,33.01-21.92,49.13-1.57,5.97,2.77,5.35,3.89,7.76.73,1.57-1.36,4.96-2.51,6.21-1.98.66-4.06-2.32-6.78.21Z"/>
    <path class="cls-1" d="M312.45,110.7c-19.04-2.99-37.74-7.63-56.33-12.58-16.25,3.66-7.53,26.7,1.23,34.09s29,17.79,39.45,22.89c1.42.69,8.77,3.31,9.14,3.91,1.29,2.1-4.18,9.79-5.81,11.62-6,6.73-12.59,6.64-20.39,2.98-19.19-9.01-38.03-23.15-57.15-32.74-14.48-19.18-9.94-50.91,9.47-65.37,29.85-22.24,78.06-3,80.39,35.2Z"/>
    <path class="cls-1" d="M205.79,232.84c7.72,6.32,17.77,12.02,24.99,18.74,5.39,5.02,5.99,7.84,2.98,14.59-4.61,10.33-12.05,20.54-17.08,30.77-.79,1.61-2.56,3.89-.86,5.37,2.58,2.25,11.67,4.82,12.76,8.02,1.28,3.75-.35,7.87-4.44,8.56-3.4.58-20.87-2.81-24.68-4.09-4.26-1.43-5.11-4.56-4.12-8.76l15.28-38.38-.61-2.57c-10.4-5.88-21.47-10.64-31.93-16.4-10.42-5.75-20.58-11.99-17.55-25.79.75-3.43,1.93-9.44,6.21-9.3,14.13.45,27.66-2.18,40.68-8.09,3.83-1.74,6.87-4.02,10.54-5.92,1.25.11,4.21,5.28,3.43,6.81l-16.21,24.43.62,2Z"/>
    <path class="cls-1" d="M217.62,153.85c9.39-.88,15.28,2.93,18.83,11.34,3.77,8.91,6.06,18.58,10.19,27.51,1.93,4.18,3.35,9.54,8.55,9.37,4.87-.16,20.49-.88,24.09-2.51,4.99-2.25,6.22-5.04,12.77-2.98,14.05,4.42,9.49,26.52-6.79,23.71-2.59-.45-4.51-3-7.37-2.82-9.93,1.05-20.6,4.14-30.46,4.86-3.71.27-6.89.21-9.91-2.16-6.05-4.75-15.29-30.15-20.68-38.29-.77-1.17-2.3-3.53-3.51-1.87-1.38,1.9.9,6.63.77,8.96-10.46,8.61-23.74,13.63-37.24,14.99-1.26.13-7.39.62-7.99.26-.52-.32-.56-.73-.26-1.24,9.1-17.81,26.92-47.08,48.99-49.14Z"/>
    <path class="cls-1" d="M130.62,53.81c6.05-.38,22.16,3.06,27.12,6.42,19.44,13.18,14.44,54.86-13.61,51.31-6.85-.87-24.41-7-31.4-9.68-14.65-5.63-11.52-19.72-6.55-31.4,4.18-9.82,13.88-15.98,24.44-16.64Z"/>
    <path class="cls-1" d="M199.76,268.33v2.76c-22.03,6.5-32.73,31.81-21.27,52.11,10.24,18.13,34.51,23.2,51.47,11.19,17.87-12.66,18.98-37.4,5.64-53.83l4.36-10.36c.55-.5,3.59,2.8,4.11,3.38,29.43,32.64,1.9,84.68-41.98,78.23-39.1-5.74-52.82-54.77-24.01-81.37,1.51-1.4,8.59-6.86,10.15-7.29,2.35-.65,8.71,4.69,11.52,5.2Z"/>
    <path class="cls-1" d="M135,157.64c.26.96.05,1.92-.15,2.86-1.33,6.29-5.99,20.81-8.59,26.69-.96,2.17-2.09,3.65-4.6,4.11-7.45,1.34-30.25-7.36-37.36-11.24-3.44-1.88-7.36-4.1-8.09-8.34-.76-4.39,3.01-17.07,4.59-21.76.72-2.13,2.43-7.89,4.83-8.25,1.01-.15,11.93,5.51,14.16,6.43,11.25,4.65,23.2,7.56,35.2,9.51Z"/>
    <path class="cls-1" d="M165.52,112.63c11.59-11.02,16.19-29.49,7.83-43.83-1.19-2.03-3.18-3.62-3.96-5.94,7.38,2.16,16.25,3.3,23.41,5.82,7.73,2.72,12.88,14.16,12.88,21.96,0,7.77-5.18,21.37-13.93,22.84-7.83,1.31-18.18-.96-26.23-.86Z"/>
    <path class="cls-1" d="M276.55,113.21l36.16,6.66c.75,1.15-.05,12.91-.26,15.24-.34,3.75-1.04,10.43-2.06,13.89-.87,2.99-2.74,1.57-4.96.86-6.07-1.94-13.21-5.61-18.75-8.8-2.01-1.16-7.88-4.39-9.05-5.93-1.03-1.35-1.28-3.44-1.68-5.08-.79-3.16-3.58-15.62.6-16.83Z"/>
    <path class="cls-1" d="M212.88,84.6c-1.65-1.9-2.3-4.57-3.66-6.73-.58-.92-4.17-4.75-3.58-5.35,6.7.77,11.66,5.63,7.24,12.08Z"/>
  </g>
</svg>