<?xml version="1.0" encoding="UTF-8"?>
<svg id="_Слой_1" data-name="Слой 1" xmlns="http://www.w3.org/2000/svg" viewBox="0 0 406.11 406.11">
  <defs>
    <style>
      .cls-1 {
        fill: #fff;
      }
    </style>
  </defs>
  <g>
    <path d="M86.3.5h233.52c47.35,0,85.8,38.45,85.8,85.8v233.52c0,47.35-38.45,85.8-85.8,85.8H86.3c-47.35,0-85.8-38.45-85.8-85.8V86.3C.5,38.94,38.95.5,86.3.5Z"/>
    <path d="M319.81,1c47.03,0,85.3,38.27,85.3,85.3v233.52c0,47.03-38.27,85.3-85.3,85.3H86.3c-47.03,0-85.3-38.27-85.3-85.3V86.3C1,39.27,39.27,1,86.3,1h233.52M319.81,0H86.3C38.64,0,0,38.64,0,86.3v233.52C0,367.48,38.64,406.11,86.3,406.11h233.52c47.66,0,86.3-38.64,86.3-86.3V86.3C406.11,38.64,367.48,0,319.81,0h0Z"/>
  </g>
  <g>
    <path class="cls-1" d="M167.24,130.56c1.34,15.2,13.04,23.09,25.7,29,12.72,5.93,27.34,12.54,40.42,17.43s23.6,9.56,32.03-4.64c2.31-3.9,3.48-8.27,5.18-12.43,9.01,3.72,17.34,12.25,16.54,22.63l-2.25-.39-.7,1.03.21.64c4.34,2.45,8.89,3.01,11.72,7.56s1.54,3.1-1.31,4.91c-4.67,2.97-10.05,10.48-9.36,16.25.57,4.8,2.94-1.82,3.36-2.55,2.82-4.78,8.62-10.44,14.49-10.69,3-.13,4.4,3.4,7.13.86-3.18-6.17-6.3-11.58-4.13-18.79,1.39-4.6,4.45-6.92,9.38-5.77,5.58,1.3,9.26,15.54,2.27,15.37-3.54-.09-3.58-3.39-6.28-4.65-1.41,1.39-.34,4.26.54,5.74,1.72,2.91,4.46,3.23,7.59,3.1-.43,9.98,17.33,11.11,18.47,2.65.64-4.8-3.44-.18-5.29.6-9.7,4.11-12.51-8.62-1.73-11.79,1.51-.44,8.25-.81,7.87-2.6-.56-2.65-10.67,1.24-12.05,1.39-2.34.26-3.19-6.21-1.98-7.47,1.01-1.05,7.44-1.46,9.42-2.31.68-.29,1.41-.54,1.26-1.46-4.63-.97-9.14-.56-13.42,1.47l-3.16-2.32c.06-7.03,12.99-6.57,17.65-5.05,5.96,1.95,8.93,9,10.04,14.69,2.22,11.32.39,24.29-11.38,29.29-3.21,1.36-7.11.91-7.69,5.09.36.32,2.33-.63,2.05.58-2.54,10.97-13.79,20.91-24.37,23.84-2.2.61-4.87.7-6.71,1.25-2.43.73-2.74,2.25-6.39,1.99-5.27-.38-4.74-3.37-7.47-4.7-1.65-.8-4.37-.98-6.28-1.68-5.68-2.08-9.31-4.9-8.68-11.43.45-4.73,3.99-5.04,6.69-8.4,6.52-8.09,6.97-22.95.78-31.36-.78-1.05-6.77-7.31-7.89-6.15.13,2.32,2.35,4.28,3.43,6.42,9.07,17.91.21,33.22-20.4,30.88-2.51-.28-11.03-2.95-12.37-2.3-.42.21-.86.77-.86,1.26,3.27,4.02,10.22,6.39,15.37,6.86,1.63.15,6.72-.33,7.5.46,2.36,2.4,1.37,12.42.5,15.61-5.24,19.22-29.54,27.8-47.69,25.29-5.55-17.44-26.18-27.96-43.73-26.58-1.5.12-8.78,1.13-8.96,2.66-.02.17.29,1.01.59,1.08,2.18.56,8.01-.2,10.83-.02,12.45.83,31.03,8.88,34.56,22.03,3.74,13.94-4.68,26.06-14.64,34.77-.91.79-4.82,3.18-5,3.84-.47,1.82,5.88,4.31,7.3,5.59,3.31,2.97,4.16,9.27-.64,11.09-4.14,1.58-16.26-.25-20.95-1.24-12.5-2.65-20.03-8.02-8.61-19.47-1.34-7.51.07-14.87,6.8-19.23.83-.54,4.55-1.81,4.32-2.79-.3-.3-.61-.84-1.03-.9-.82-.12-5.15,1.37-6.73,1.51-6.6.59-13.69-.23-19.77-2.85-9.07-3.91-19.68-15.3-16.08-25.87.37-1.09,1.94-3.37,2.01-3.83.09-.55-1.06-3.62-1.17-4.95-.17-2.01.5-11.47,2.8-11.9,2.45.8,4.32,2.57,7.06,2.47.63-.02,1.23.28,1.05-.64-5.21-4.7-12.45-9.19-12.78-17.01.33-.74,4.9-2.07,6.09-2.68,4.27-2.17,7.95-5.44,11.31-8.81l2.5-3.15c6.07,13.08,20.56,20.04,33.95,23.27,12.02,2.9,24.04,3.53,35.85-.63,11.3-3.97,20.54-13.34,15.61-26.11-.29-.75-2.84-6.2-4.09-4.92,3.06,13.06-.48,21.66-13.52,25.68-17.06,5.26-65.55-3.22-62.32-27.53.33-2.48,2.57-5.19,2.82-6.83.11-.75.07-.9-.55-1.37-4.85,3.16-10.18,5.95-16.14,5.86,2.76,13.86-11.96,20.98-23.88,19.26-.66-4.97-5.13-9.59-9.66-11.5-1.37-.58-5.13-2.07-5.66-.21,7.33,3.23,10.58,10.37,9.81,18.18-.47,4.71-3.29,8.92-3.3,13.68,8.25-.94,15.37,5.68,14.62,13.99-.15,1.65-1.68,6.96-3.92,6.56-.77-.14-1.08-8.62-3.96-6.67-2.5,1.69,5,11.58-.32,14.98-4.46,2.85-8.01-.46-10.83-3.69-.62.47-.66.61-.55,1.37.19,1.26,3.04,5.49,2.85,5.74-3.54,1.42-6.69,2.12-10.03-.23-.95-.67-3.95-4.88-4.63-4.37-.94,2.24,1.06,3.86,2.08,5.66-4.21,2.15-8.43-.75-11.06-4.02-4.21-5.23-5.5-12.48-5.27-19.03.04-1.12.9-4.48.61-5.27-.2-.54-4.72-5.84-5.65-7.3-6.64-10.48-11.22-25.38-2.5-36.06.51-.62,1.45-.77,1.87-1.49,1.04-1.77,1.94-7.08,3.22-9.77,5.17-10.89,16.72-18.96,28.76-20.07,6.08-20.88,29.03-24.91,46.91-15.9,3.15,1.59,6.08,4.15,9.36,5.1.94-.9-4.84-6.46-5.65-7.13-1.48-1.23-3.11-2.28-4.83-3.13,4.31-2.96,9.82-4.72,15.09-4.41ZM117.21,172.93c-.66.18-.99.85-.25,1.42.87.68,3.81,1.57,5.15,2.4,1.76,1.09,4.12,3.47,5.88,4.19,2.25.92.15-1.99-.35-2.59-1.71-2.09-7.78-6.15-10.43-5.41ZM318.56,203.5c-.8-.75-1.55,2.06-1.59,2.4-.22,2.18,2.59,6.16,4.94,6.4,0-3.26-2.54-5.77-3.36-8.8ZM188.6,207.3c-2.16.06-4.38-2.84-6.15-3.3s-1.55,1.88-.91,3.02c.87,1.53,8.11,4.56,7.05.28ZM231.26,246.33c-2.62.55-6.26,6.29-2.52,7.39,5.13,1.51,8.16-8.57,2.52-7.39Z"/>
    <path class="cls-1" d="M264.91,119.66l-48.84-12.15c-8.92-1.32-13.06,3.27-12.8,11.96.41,13.78,11.47,16.75,22.13,21.05,12.85,5.19,25.99,9.78,39.06,14.39-.42,6.75-4.99,19.93-13.17,20.13-4.34.1-14.63-4.35-19.06-6.13-12.45-5-26.35-11.09-38.44-16.89-10.88-5.22-18.19-10.21-20.14-23.04-3.64-23.96,11.16-44.24,35.71-45.8,25.91-1.65,49.47,9.85,55.56,36.49Z"/>
    <path class="cls-1" d="M165.15,322.97l13.39,2.74c17.26,24.34,50.9,4.7,46.92-22.19-1.1-7.46-5.56-14.62-12.94-17.04l2.93-10.05c10.07,1.53,17.37,10.07,20.86,19.17,6.9,18.04-1.55,38.32-18.06,47.55-19.99,11.17-45.95,1.56-53.1-20.19Z"/>
    <path class="cls-1" d="M208.24,52.3c10.91-.51,33.15.35,42.86,5.1,9.1,4.45,6.07,10.69-2.32,13.23-16.63,5.02-49.99,5.09-66.54-.13-5.05-1.59-11.62-6.33-5.92-11.56,5.38-4.94,24.45-6.3,31.92-6.65ZM183.18,64.32c.61.88,14.11,2.75,16.14,2.94,13.19,1.21,27.51,1.07,40.59-.9,4.08-.62,15.55-2.18,4.47-5.17-12.62-3.41-43.29-3.45-55.93-.18-1.1.28-6.52,1.49-5.26,3.31Z"/>
    <path class="cls-1" d="M245.63,298.24c-1.79-10.48-9.03-19.17-17.19-25.57,10.62-1.38,19.83-5.9,28.65-11.68,12.82,12.34,2.77,31.55-11.46,37.24Z"/>
    <path class="cls-1" d="M303.48,274.35l-.42-8.81,2.25.47c11.73,10,23.9,19.68,35.02,30.38,1.07,1.02,1.17,2.12-.41,1.67-.77-.22-4.43-2.62-5.55-3.26-7.94-4.6-15.37-10.13-23.15-15-.96-.37-.67,1.32-.61,1.87.14,1.46,2.78,10.1-.84,8.41l-29.73-27.73.61-.99c1-.25,8.35,4.38,9.79,5.27,2.88,1.78,8.72,6.54,11.38,7.48.57.2,1.04.33,1.65.24Z"/>
    <path class="cls-1" d="M117.77,272.67l-.84,1.47c-10.21,9.68-21.67,18.02-32.49,27.02-1.83-.14.04-8.53-.2-10.26-.08-.57.24-.73-.62-.61l-25.76,14.07-1.29-.46.88-1.63,30.99-25.19c4.45-2.08,2.81,7.16,2.51,9.43,1.37.2,2.48-.6,3.63-1.18,2.51-1.27,21.99-13.79,23.19-12.64Z"/>
    <path class="cls-1" d="M346.52,104.45c-10.03,8.72-19.64,17.93-29.21,27.16l11.1,2.72.02.85c-8.81,5.06-17.31,10.73-26.08,15.84-1.28.75-3.32,2.07-4.61,2.52-.47.16-.76.81-1.18.08-.59-1.03,1.44-2.72,2.09-3.37,2.85-2.83,6.46-5.43,9.45-8.16,1.75-1.6,3.3-3.91,5.44-4.83.82-1.17-11.17-3.14-10.48-4.18,11.05-7.12,20.93-15.97,31.8-23.33,1.7-1.15,9.58-6.46,10.83-6.78s1.6.6.83,1.48Z"/>
    <path class="cls-1" d="M290.9,102.89l9.64,1.69c.09.56-.26.94-.5,1.39-1.34,2.6-18.06,19.1-20.92,21-.51.34-.96.78-1.64.66l.33-1.98,11-17.51c.2-1.07-1.74-.56-2.63-.74-1.96-.4-3.77-1.32-5.77-1.57l.06-.98c8.43-9.16,16.89-18.32,25.5-27.32.67-.7,2.16-2.54,3.15-2.29,1.51.38-1,3.66-1.45,4.41-4.9,8.07-11.03,15.78-16.78,23.25Z"/>
    <path class="cls-1" d="M113.59,118.82c-2.79,1.61-5.57,2.42-8.61,3.35-.46.14-.75-.29-.61.63.83,1.19,10.81,9.53,9.64,10.69l-23.89-11.32c-.71-.76,1.59-1.4,1.99-1.57,2.69-1.12,5.72-1.73,8.49-2.63l-.06-.97-26.15-26.25-.61-1.69c.65-.65,6.9,4.13,7.92,4.86,10.9,7.89,21.58,16.28,31.9,24.89Z"/>
    <path class="cls-1" d="M135.8,286.5c.1.73-.05,1.31-.33,1.98-1.98,4.76-7.71,10.51-9.82,15.33-.19.44-.42.84-.33,1.34l10.2.61.4,1.99-26.51,26.77-1.69.61c-.49-.49,3.12-5.74,3.68-6.59,3.85-5.86,8.28-11.32,12.24-17.1.11-.85-.04-.54-.61-.62-3.04-.41-6.51.73-9.59.35l-.66-.61.19-1.41,21.14-22.04,1.69-.61Z"/>
    <path class="cls-1" d="M142.09,103.31l-8.38,1.05,12.56,16.79c.11.69.03.66-.62.63-1.16-.06-4.68-3.24-5.85-4.22-5.73-4.77-10.99-10.16-16.86-14.78l-.53-1.95c.31-.46,7.03-.78,8.17-.86.62-.04,1.21.32,1.04-.62l-21.79-27.88c.96-.14,1.58.33,2.3.84,2.18,1.53,6.56,6.21,8.81,8.37,5.76,5.5,14.97,13.75,19.69,19.71.68.85,1.59,1.76,1.46,2.93Z"/>
    <path class="cls-1" d="M293.84,312.49c-2.93-.14-5.87.2-8.78.17-.54,0-1-.61-.85.45l15.08,20.13c-.06,1.76-3.57-1.52-3.98-1.88-5.11-4.43-11.35-11.13-16.14-16.14-.97-1.01-6.51-6.94-6.69-7.57-.14-.9.13-.49.6-.63,2.78-.83,6.14-.95,9.04-1.25l-8.15-11.31c-.19-1.67,1.15-1.67,2.31-.66l17.58,18.67Z"/>
    <path class="cls-1" d="M381.45,228.66c.14,1.08-.66,1.18-1.44,1.27-4.77.56-12.59.1-17.65,0-1.17-.02-2.4-.21-3.54-.44l2.93,7.12-22.22-5.03c-.12-.91.71-1.52,1.48-1.66,1.99-.38,11.5.45,12.36-.43l-1.68-7.12,29.76,6.29Z"/>
    <path class="cls-1" d="M75.6,146.65c-.47.57-.81,1.25-1.41,1.73l8.18,5.23c.54.83-.09,1.65-.91,2.01-5.58-1.43-11.48-2.93-16.48-5.61l3.32-4.15-21.1-15.36-.69-1.61,29.9,14.74,1.06.98c-.36.91-1.39,1.45-1.88,2.05Z"/>
    <path class="cls-1" d="M42.74,224.04l2.93-6.7c-.49-.69-14.75-1.1-16.92-1.32-.81-.08-2.09-.3-2.87-.49-.43-.11-1.52-.19-1.16-.91.5-.82,1.2-.52,1.88-.64,5.09-.9,10.33-1.11,15.45-1.73,1.96-.24,11.06-2.09,12.03-1.43,1.75,1.19-3.13,6.79-2.35,7.79,1.6.84,12.39,2.11,12.38,3.55-2.42,1.9-6.43.85-9.44,1.03-1.57.09-11.5,1.27-11.93.85Z"/>
    <path class="cls-1" d="M266.55,127.25c.22,2.85,1.7,20.09.46,21.34l-4.21-1.51-.39-20.7,4.15.88Z"/>
    <path class="cls-1" d="M202.87,317.1c-.08-1.56.16-3.16-.1-4.72-.83-4.98-6.84-7.95,1.54-11.62,3.59,5.93,8.26,13.49-1.44,16.34Z"/>
    <path class="cls-1" d="M264.53,92.8c-.62-.88,1.31-3.29,1.88-4.12,1.16-1.69,10.81-13.48,11.7-13.44,1.4.07-.59,3.32-.83,3.77-1.3,2.42-3.4,5.29-5.08,7.49-.97,1.27-5.04,6.64-6.23,6.73-.23.02-1.39-.36-1.44-.43Z"/>
    <path class="cls-1" d="M151.31,76.49c.85-.18,1.12.19,1.69.61,1.32.96,9.88,13.35,10.28,14.89.16.61.31,1.48-.45,1.69-1.28.35-2.94-2.52-3.65-3.47-1.05-1.4-8.75-12.85-7.87-13.71Z"/>
    <path class="cls-1" d="M66.2,252.11c-2.35,1.1-17.63,7.13-18.85,5.89l.26-1.29,17.78-6.46.8,1.86Z"/>
    <path class="cls-1" d="M378.09,183.38c-5.07.52-10.73,3.1-15.74,3.36-1.8.09-3.46-.99-1.87-2.31.8-.67,10.63-2.06,12.42-2.25.92-.1,4.67-.54,4.99-.06l.2,1.27Z"/>
    <path class="cls-1" d="M341.62,264.7c-.88.09-1.66.01-2.52-.2-2.13-.53-7.6-3.33-9.77-4.48s-4.02-2.42-5.97-3.69l.25-1.25c.74-.59,7.54,2.89,8.8,3.54,3.08,1.58,6.89,3.56,9.21,6.08Z"/>
    <path class="cls-1" d="M265.74,337.63l-1.4.35-9.61-13.46c.21-4.56,4.21,1.61,5.31,3.1.93,1.26,6.39,9.08,5.7,10Z"/>
    <path class="cls-1" d="M361.32,143.56c.19,1.02-.1,1.05-.69,1.62-.84.81-4.3,2.51-5.59,3.21-1.45.79-9.55,4.96-10.49,3.97-.42-1.78.75-1.98,2.09-2.73,1.46-.82,14.12-6.64,14.67-6.07Z"/>
    <path class="cls-1" d="M42.6,175.47c1.44-.45,12.62,2.92,14.51,3.81.86.4,1.77.5,1.56,1.78-.51.78-.98.64-1.77.55-1.73-.2-14.22-4.02-14.8-4.93-.5-.48,0-1.05.5-1.21Z"/>
    <path class="cls-1" d="M268.99,41.76c1.59-.25,1.66,1.12.98,2.27-1.34,2.25-6.11,5.43-7.99,7.54-.88.6-2.1-.4-2.1-1.27,0-.79,8.2-8.39,9.12-8.53Z"/>
    <path class="cls-1" d="M146.33,325.12c1.01-.62,2.26.09,1.86,1.63-.36,1.39-7.67,12.15-8.41,12.14l-.87-1.27,7.41-12.5Z"/>
    <path class="cls-1" d="M217.09,47.1l-1.79-.02c-.55-.14-.6-.51-.69-.99-.44-2.39.08-7.88.4-10.5.29-2.34,2.21-1.63,2.52.03.24,1.27.08,11.03-.45,11.47Z"/>
    <path class="cls-1" d="M164.53,40.86c.68-.2,1.03.27,1.47.61.67.5,6.7,6.9,6.91,7.36.78,1.73-1.02,2.66-2.76,1.06-.84-.77-5.12-5.34-5.62-6.12-.47-.73-1.23-2.56,0-2.91Z"/>
    <path d="M318.56,203.5c.82,3.03,3.36,5.54,3.36,8.8-2.36-.23-5.17-4.22-4.94-6.4.04-.35.79-3.15,1.59-2.4Z"/>
  </g>
</svg>