<?xml version="1.0" encoding="UTF-8"?>
<svg id="_Слой_1" data-name="Слой 1" xmlns="http://www.w3.org/2000/svg" viewBox="0 0 406.11 406.11">
  <defs>
    <style>
      .cls-1 {
        fill: #fff;
      }
    </style>
  </defs>
  <g>
    <path d="M86.3.5h233.51c47.35,0,85.8,38.45,85.8,85.8v233.51c0,47.35-38.45,85.8-85.8,85.8H86.3C38.95,405.61.5,367.17.5,319.81V86.3C.5,38.95,38.95.5,86.3.5Z"/>
    <path d="M319.81,1c47.03,0,85.3,38.27,85.3,85.3v233.52c0,47.03-38.27,85.3-85.3,85.3H86.3c-47.03,0-85.3-38.27-85.3-85.3V86.3C1,39.27,39.27,1,86.3,1h233.52M319.81,0H86.3C38.64,0,0,38.64,0,86.3v233.52C0,367.48,38.64,406.11,86.3,406.11h233.52c47.66,0,86.3-38.64,86.3-86.3V86.3C406.11,38.64,367.48,0,319.81,0h0Z"/>
  </g>
  <g>
    <path class="cls-1" d="M299.55,103.13c-10.27-2.08-20.73-3.58-30.97-5.76-8.92-1.9-20.92-6.19-29.37-7.13s-10.84,4-10.34,11.73c1.06,16.46,8.26,20.01,20.83,28.15,9.4,6.09,20.22,12.41,30.29,17.3,1.93.94,13.42,5.43,13.83,6.06.59.93-1.59,4.64-2.2,5.69-3.05,5.3-8.33,11.9-14.94,12.33s-18.28-6.37-24.26-9.46c-17.8-9.2-34.92-19.79-52.64-29.15-4.59-3.77-7.03-14.62-7.41-20.31-2.47-36.88,23.3-59.09,59.36-55.21,25.36,2.73,45.5,19.61,47.82,45.74Z"/>
    <path class="cls-1" d="M142.34,113.87c1.42-.23,3.54-.25,4.97-.11,3.99.39,24.86,8.34,28.74,10.53,5.97,3.36,6.97,8.97,4.08,14.89-5.81,11.88-13.15,23.81-19.43,35.56-2.73,5.11-11.77,25.04-15.04,27.47-4.12,3.06-8.5,1.6-12.76-.12-4.83-1.95-21.37-9.07-24.36-12.14-4.26-4.37-3.35-9-1.29-14.13,7.52-18.75,18.93-37.39,27.27-55.9,1.56-2.93,4.44-5.51,7.81-6.05Z"/>
    <path class="cls-1" d="M205.23,191.45c.5,2.69,5.09,7.82,4.62,10.22-.56,2.85-9.89,11.94-11.52,15.32l-.34,2.71,27.01,21.28c2.49,2.96,3.01,6.21,2.24,10.01l-15.05,35.36.1,1.06c5.32,2.68,17.16,6.35,13.56,14.39-1.49,3.32-4.1,3.47-7.34,3.17-4.92-.45-17.06-2.7-21.64-4.23-3.17-1.06-4.32-2.96-4.95-6.16,2.59-13.04,8.49-25.42,12.72-38.05.78-2.01-1-2.77-2.34-3.73-11.34-8.05-39.49-16.4-45.43-27.57-3.84-7.2-3.05-17.47,1.61-24.12,12.54,2.32,25.04.33,36.5-5.05,1.83-.86,8.88-5.49,10.25-4.63Z"/>
    <path class="cls-1" d="M198.27,145.78c11.19-1.02,17.31,6.44,21.75,15.4,4.7,9.51,8.34,20.43,14.02,29.41,2.7,4.27,5.53,3.27,10.32,3.11,3.21-.1,20.22-1.19,21.89-2.13.97-.55,2-1.92,3.31-2.7,11.55-6.88,27.26,5.56,17.9,17.9-5.24,6.9-14.24,6.77-20.92,2.14-10.41,1.33-22.09,5.26-32.43,5.97-6.75.46-9.47-1.8-13.21-7-7.25-10.06-13.03-22.72-19.85-33.28-.52-.81-1.44-2.66-2.46-2.66-4.4,1.63,3.04,8.93,1.17,10.89-.93.97-8.6,4.66-10.32,5.39-7.16,3.04-15.38,4.76-23.18,5.03-2.01.07-2.98-.13-2.44-2.46,8.23-12.58,17.19-43.46,34.46-45.02Z"/>
    <path class="cls-1" d="M180.68,251.05c1.25-.34,3.94,1.36,5.22,2,1.58.79,7.22,3.17,4.85,4.87-26.96,14.14-26.3,54.67,2.22,66.61,34.88,14.6,66.23-27.3,42.35-56.67-1.37-1.68-4.79-3.76-4.53-5.89.1-.81,2.96-7.19,3.52-8.08.3-.48.46-1.11,1.18-1.01,32.06,23.04,22.65,73.67-15.76,83.91-45.72,12.19-79.02-41.65-48.85-77.04,1.35-1.58,8.28-8.28,9.82-8.7Z"/>
    <path class="cls-1" d="M299.9,112.48c.52.72.52,1.57.59,2.41.29,3.46-.2,9.77-.49,13.41-.44,5.62-1.05,11.64-3.06,16.91-2.11.44-20.99-8.03-24.04-9.66-10.32-5.5-14.01-9.23-14.49-21.54-.14-3.51-.05-8.32,4.42-8.6l37.08,7.07Z"/>
    <path class="cls-1" d="M229.8,160.44c5.99.75,7.33,10.54,3.45,14.3-2.01-1.58-5.09-13.17-3.45-14.3Z"/>
  </g>
</svg>