<?xml version="1.0" encoding="UTF-8"?>
<svg id="Capa_1" xmlns="http://www.w3.org/2000/svg" version="1.1" viewBox="0 0 800 800">
  <!-- Generator: Adobe Illustrator 29.5.1, SVG Export Plug-In . SVG Version: 2.1.0 Build 141)  -->
  <path fill="black" d="M413.9,157.8c.5.8,1.8.5,2.6.5,19.1.2,39.2,2.9,57.9,6.4,173.1,32.4,307.2,178.5,323.8,354.2,1.3,14,3.8,41.5-1.2,54-15.4,38.4-73.7,29.6-76.5-13.2-.8-11.5-.2-22.8-1.4-34.6-18.6-182.3-187-312.1-368.6-284.2-143.3,22-256.1,140.6-270,285.1-1.1,11.6-.6,23.2-1.4,34.6-2.9,40.5-58.9,50.6-75.8,13.8-1.9-4.1-2.4-8.1-3.9-12.2.2-6.2-.3-12.5,0-18.7C10.2,333.9,173.8,164.9,385.6,157.8h28.3Z"/>
  <polygon fill="black" points="220.8 591 269.4 308.9 341.4 309.5 398.2 458.5 453.5 309 526.6 308.9 574.4 591 501.3 591 476.8 429.7 410 591 381 590.9 317.6 430.3 293.9 591 220.8 591"/>
</svg>