<?xml version="1.0" encoding="UTF-8"?>
<svg id="Layer_1" xmlns="http://www.w3.org/2000/svg" version="1.1" viewBox="0 0 800 800">
  <!-- Generator: Adobe Illustrator 29.5.1, SVG Export Plug-In . SVG Version: 2.1.0 Build 141)  -->
  <path fill="black" d="M466.3,559.5v-268.3h-132.7v268.3c-32.6,21.6-54.1,58.5-54.1,100.5,0,66.5,53.9,120.4,120.4,120.4s120.4-53.9,120.4-120.4c0-42-21.5-79-54.1-100.5Z"/>
  <g>
    <path fill="black" d="M485.9,549.5V85.9c0-47.4-38.5-85.9-85.9-85.9s-85.9,38.5-85.9,85.9v463.6c-34.1,26.5-54.1,67-54.1,110.5,0,77.2,62.8,140,140,140s140-62.8,140-140-20-84.1-54.1-110.5ZM353.2,85.9c0-25.8,21-46.8,46.8-46.8s46.8,21,46.8,46.8v49.9h-40.3c-10.8,0-19.5,8.7-19.5,19.5s8.7,19.5,19.5,19.5h40.3v20.3h-40.3c-10.8,0-19.5,8.7-19.5,19.5s8.7,19.5,19.5,19.5h40.3v37.4h-93.6V85.9h0ZM400,760.9c-55.6,0-100.9-45.3-100.9-100.9s16.9-65.4,45.3-84.2c5.5-3.6,8.8-9.7,8.8-16.3v-248.8h93.6v248.8c0,6.6,3.3,12.7,8.8,16.3,28.4,18.8,45.3,50.3,45.3,84.2,0,55.6-45.3,100.9-100.9,100.9Z"/>
    <path fill="black" d="M457.8,640.5c-10.8,0-19.5,8.7-19.5,19.5,0,21.1-17.2,38.3-38.3,38.3s-19.5,8.7-19.5,19.5,8.7,19.5,19.5,19.5c42.7,0,77.4-34.7,77.4-77.4s-8.8-19.5-19.5-19.5Z"/>
  </g>
</svg>